{"glyphs":{"0":{"ha":633,"x_min":67,"x_max":565,"o":"m 148 72 q 67 341 67 165 q 148 609 67 517 q 317 689 217 689 q 483 609 417 689 q 565 341 565 517 q 483 72 565 165 q 317 -9 415 -9 q 148 72 219 -9 m 211 561 q 167 340 167 494 q 211 117 167 185 q 319 48 256 48 q 422 117 381 48 q 467 339 467 187 q 422 562 467 491 q 315 633 378 633 q 211 561 252 633 z "},"1":{"ha":343,"x_min":4,"x_max":244,"o":"m 230 135 q 244 0 230 89 l 128 0 q 141 135 141 63 l 141 531 q 137 602 141 569 l 39 506 l 4 548 l 128 667 l 244 689 q 230 554 230 585 l 230 135 z "},"2":{"ha":563,"x_min":54,"x_max":496,"o":"m 361 69 q 496 83 430 69 l 496 0 l 54 0 q 285 317 78 156 q 387 485 387 394 q 354 587 387 548 q 252 633 311 633 q 93 506 159 633 l 89 506 l 89 622 q 256 689 157 689 q 413 637 356 689 q 485 485 485 576 q 317 256 485 361 q 144 69 183 169 l 361 69 z "},"3":{"ha":517,"x_min":46,"x_max":461,"o":"m 222 624 q 87 611 165 624 l 87 680 l 419 680 l 428 624 q 339 519 383 580 l 263 407 q 393 361 335 407 q 461 210 461 307 q 394 52 461 113 q 219 -9 326 -9 q 46 57 113 -9 l 46 174 l 50 174 q 91 109 67 135 q 216 48 146 48 q 326 93 285 48 q 361 206 361 135 q 322 315 361 276 q 194 359 274 359 l 170 391 l 333 624 l 222 624 z "},"4":{"ha":561,"x_min":9,"x_max":507,"o":"m 441 135 q 454 0 441 78 l 337 0 q 352 135 352 74 l 352 163 l 28 163 l 9 219 q 94 319 52 259 l 272 561 q 337 680 313 617 l 454 680 q 441 546 441 602 l 441 220 q 475 226 457 224 q 507 231 493 228 l 507 163 l 441 163 l 441 135 m 352 219 l 352 581 l 89 219 l 352 219 z "},"5":{"ha":517,"x_min":46,"x_max":461,"o":"m 411 611 q 276 624 337 624 l 178 624 l 169 413 q 224 419 198 419 q 394 360 326 419 q 461 207 461 302 q 394 52 461 113 q 219 -9 326 -9 q 46 57 113 -9 l 46 174 l 50 174 q 91 109 67 135 q 216 48 146 48 q 323 90 285 48 q 361 206 361 131 q 319 321 361 280 q 211 363 278 363 q 150 350 178 363 l 81 407 l 122 680 l 411 680 l 411 611 z "},"6":{"ha":607,"x_min":67,"x_max":539,"o":"m 213 350 q 176 223 176 298 q 215 98 176 148 q 317 48 254 48 q 415 102 380 48 q 446 226 446 146 q 415 350 446 306 q 312 402 374 402 q 213 350 250 402 m 485 517 l 480 517 q 346 633 422 633 q 219 567 270 633 q 167 385 167 500 q 324 461 230 461 q 479 390 419 461 q 539 225 539 319 q 479 61 539 131 q 319 -9 419 -9 q 148 72 219 -9 q 67 334 67 165 q 156 607 67 504 q 329 689 224 689 q 485 633 433 689 l 485 517 z "},"7":{"ha":461,"x_min":22,"x_max":420,"o":"m 157 624 q 22 611 104 624 l 22 680 l 411 680 l 420 624 q 394 563 406 594 q 369 498 381 531 l 252 133 q 228 0 231 72 l 109 0 q 161 128 146 83 l 322 624 l 157 624 z "},"8":{"ha":554,"x_min":54,"x_max":498,"o":"m 309 419 q 381 526 381 456 q 354 605 381 576 q 286 633 326 633 q 219 611 246 633 q 191 536 191 589 q 257 446 191 483 l 309 419 m 54 200 q 185 387 54 322 q 107 527 107 446 q 174 661 107 607 q 280 689 215 689 q 395 644 344 689 q 446 519 446 600 q 361 389 446 437 q 498 196 498 326 q 435 50 498 113 q 275 -9 370 -9 q 119 50 180 -9 q 54 200 54 109 m 244 352 q 120 198 120 304 q 166 90 120 131 q 273 48 211 48 q 374 88 335 48 q 413 192 413 128 q 315 311 413 256 l 244 352 z "},"9":{"ha":607,"x_min":67,"x_max":539,"o":"m 394 580 q 291 633 354 633 q 194 581 228 633 q 161 452 161 530 q 193 331 161 374 q 294 276 231 276 q 393 329 356 276 q 430 455 430 381 q 394 580 430 528 m 120 165 l 128 165 q 267 48 183 48 q 387 109 337 48 q 441 296 441 180 q 282 220 378 220 q 127 291 187 220 q 67 456 67 361 q 130 619 67 550 q 289 689 187 689 q 457 609 391 689 q 539 344 539 517 q 452 74 539 172 q 279 -9 383 -9 q 120 48 174 -9 l 120 165 z "},"\r":{"ha":0,"x_min":0,"x_max":0,"o":""},"\u0000":{"ha":0,"x_min":0,"x_max":0,"o":""}," ":{"ha":361,"x_min":0,"x_max":0,"o":""},"!":{"ha":311,"x_min":96,"x_max":215,"o":"m 215 680 q 196 546 202 639 l 187 157 l 124 157 l 115 546 q 96 680 115 611 l 215 680 m 155 -9 q 142 -9 155 -9 q 113 8 130 -9 q 96 51 96 26 q 114 93 96 76 q 156 109 131 109 q 197 93 180 109 q 215 51 215 76 q 197 8 215 26 q 155 -9 180 -9 z "},"\"":{"ha":409,"x_min":89,"x_max":319,"o":"m 319 689 q 306 504 306 628 l 239 504 q 224 689 239 628 l 319 689 m 185 689 q 170 504 170 622 l 104 504 q 89 689 104 628 l 185 689 z "},"#":{"ha":613,"x_min":89,"x_max":522,"o":"m 256 387 l 256 287 l 356 287 l 356 387 l 256 387 m 200 443 q 187 552 196 509 l 270 552 q 257 443 257 498 l 356 443 q 343 554 352 498 l 424 554 q 413 443 413 496 q 522 456 480 446 l 522 372 q 413 387 485 381 l 413 287 q 522 302 465 291 l 522 219 q 413 230 469 230 q 424 120 413 176 l 343 120 q 356 231 354 178 l 256 231 q 270 120 261 157 l 187 120 q 200 230 196 163 q 91 219 144 230 l 91 302 q 200 287 146 291 l 200 387 q 89 372 126 381 l 89 456 q 200 443 141 446 z "},"$":{"ha":502,"x_min":54,"x_max":456,"o":"m 276 -81 l 230 -81 l 230 -7 q 219 -9 226 -9 q 54 57 124 -9 l 54 174 l 59 174 q 102 109 78 135 q 224 48 156 48 l 230 48 l 230 346 l 196 365 q 87 535 87 426 q 156 659 87 609 q 230 687 187 680 l 230 761 l 276 761 l 276 689 q 378 646 331 689 l 378 552 l 372 552 q 366 565 369 557 q 359 580 363 572 q 276 633 324 631 l 276 426 l 328 398 q 456 204 456 331 q 337 19 456 83 q 276 -4 309 4 l 276 -81 m 230 630 q 169 544 169 600 q 230 450 169 489 l 230 630 m 276 322 l 276 56 q 335 96 311 67 q 370 193 370 135 q 294 311 370 270 l 276 322 z "},"%":{"ha":707,"x_min":89,"x_max":619,"o":"m 535 57 q 556 126 556 80 q 535 194 556 172 q 491 220 519 220 q 444 194 463 220 q 424 126 424 169 q 444 57 424 83 q 491 31 463 31 q 535 57 519 31 m 491 261 q 583 219 548 261 q 619 125 619 178 q 582 31 619 72 q 488 -9 546 -9 q 396 33 430 -9 q 363 126 363 69 q 396 219 363 183 q 491 261 433 261 m 263 485 q 283 554 283 511 q 263 622 283 596 q 219 646 246 646 q 172 622 191 646 q 152 555 152 602 q 172 485 152 507 q 219 461 191 461 q 263 485 246 461 m 311 646 q 344 556 344 611 q 310 459 344 500 q 218 419 276 419 q 122 461 159 419 q 89 556 89 504 q 125 648 89 607 q 219 689 161 689 q 311 646 276 689 m 150 0 q 220 117 191 52 l 419 552 q 465 680 450 617 l 563 680 q 496 563 511 604 l 296 130 q 250 0 270 78 l 150 0 z "},"&":{"ha":817,"x_min":67,"x_max":750,"o":"m 463 239 l 398 319 q 306 363 367 363 q 206 319 246 363 q 167 203 167 274 q 202 93 167 131 q 279 59 235 59 q 354 96 322 59 l 463 239 m 609 0 q 546 120 589 57 l 496 191 l 439 115 q 365 0 398 63 l 326 0 q 141 48 194 0 q 67 207 67 113 q 135 361 67 302 q 211 406 165 389 q 122 539 122 446 q 191 661 122 613 q 300 689 233 689 q 415 646 367 689 l 415 552 l 409 552 q 402 565 406 557 q 394 580 398 572 q 308 633 359 633 q 231 608 257 633 q 206 539 206 583 q 304 419 206 454 l 441 419 q 513 306 472 361 l 572 381 q 644 496 619 444 l 750 496 q 657 396 698 450 l 550 257 l 661 104 q 750 0 694 56 l 609 0 z "},"'":{"ha":274,"x_min":89,"x_max":185,"o":"m 185 689 q 170 504 170 622 l 104 504 q 89 689 104 628 l 185 689 z "},"(":{"ha":363,"x_min":89,"x_max":296,"o":"m 296 794 q 180 341 180 606 q 296 -113 180 76 l 239 -113 q 89 339 89 96 q 239 794 89 581 l 296 794 z "},")":{"ha":363,"x_min":67,"x_max":274,"o":"m 124 794 q 274 339 274 581 q 124 -113 274 96 l 67 -113 q 183 341 183 76 q 67 794 183 606 l 124 794 z "},"*":{"ha":546,"x_min":89,"x_max":456,"o":"m 246 541 q 231 680 246 609 l 315 680 q 302 541 302 613 q 415 622 369 576 l 456 550 q 330 493 391 528 q 456 435 409 450 l 415 363 q 302 444 361 411 q 315 306 302 363 l 231 306 q 246 444 246 372 q 131 363 185 415 l 89 435 q 219 493 163 459 q 89 550 169 519 l 131 622 q 246 541 178 580 z "},"+":{"ha":556,"x_min":89,"x_max":467,"o":"m 244 389 q 230 524 244 435 l 326 524 q 313 389 313 454 l 313 370 l 330 370 q 467 383 396 370 l 467 287 q 330 302 400 302 l 313 302 l 313 283 q 326 146 313 215 l 230 146 q 244 283 244 235 l 244 302 l 226 302 q 89 287 156 302 l 89 383 q 226 370 157 370 l 244 370 l 244 389 z "},",":{"ha":306,"x_min":89,"x_max":217,"o":"m 161 128 q 217 20 217 78 q 89 -131 217 -80 l 89 -128 q 139 -9 139 -76 q 96 63 139 33 l 161 128 z "},"-":{"ha":556,"x_min":89,"x_max":467,"o":"m 226 302 q 89 287 156 302 l 89 383 q 226 370 157 370 l 330 370 q 467 383 396 370 l 467 287 q 330 302 400 302 l 226 302 z "},".":{"ha":298,"x_min":89,"x_max":206,"o":"m 148 -9 q 106 8 124 -9 q 89 51 89 26 q 107 93 89 76 q 149 109 128 109 q 191 93 170 109 q 206 49 206 74 q 191 7 206 24 q 148 -9 172 -9 z "},"/":{"ha":507,"x_min":4,"x_max":502,"o":"m 4 -81 q 74 35 50 -17 l 350 633 q 393 761 381 707 l 502 761 q 433 644 465 706 l 159 48 q 113 -81 135 4 l 4 -81 z "},":":{"ha":298,"x_min":89,"x_max":207,"o":"m 107 7 q 91 51 91 28 q 107 93 91 74 q 151 109 128 109 q 191 93 174 109 q 207 51 207 76 q 191 8 207 26 q 149 -9 174 -9 q 107 7 124 -9 m 107 298 q 89 340 89 315 q 106 381 89 365 q 148 398 124 398 q 191 381 172 398 q 206 339 206 365 q 189 296 206 313 q 148 280 172 280 q 107 298 124 280 z "},";":{"ha":306,"x_min":89,"x_max":217,"o":"m 107 298 q 89 340 89 315 q 106 381 89 365 q 148 398 124 398 q 191 381 172 398 q 206 339 206 365 q 189 296 206 313 q 148 280 172 280 q 107 298 124 280 m 161 128 q 217 20 217 78 q 89 -131 217 -80 l 89 -128 q 139 -9 139 -76 q 96 63 139 33 l 161 128 z "},"<":{"ha":609,"x_min":89,"x_max":496,"o":"m 89 374 q 219 420 157 393 l 380 498 q 496 567 441 528 l 496 448 q 367 406 417 426 l 196 330 l 367 248 q 496 202 439 211 l 496 104 q 380 172 441 141 l 219 248 q 89 294 157 280 l 89 374 z "},"=":{"ha":556,"x_min":89,"x_max":467,"o":"m 89 302 q 226 287 152 287 l 330 287 q 467 302 402 287 l 467 204 q 330 219 402 219 l 226 219 q 89 204 152 219 l 89 302 m 330 452 q 467 467 378 452 l 467 370 q 330 383 396 383 l 226 383 q 89 370 157 383 l 89 467 q 226 452 178 452 l 330 452 z "},">":{"ha":609,"x_min":113,"x_max":519,"o":"m 519 294 q 389 248 450 276 l 230 172 q 113 104 189 154 l 113 220 q 241 267 193 243 l 413 339 l 241 422 q 113 467 169 456 l 113 567 q 230 498 170 524 l 389 420 q 519 374 424 404 l 519 294 z "},"?":{"ha":537,"x_min":67,"x_max":470,"o":"m 67 622 q 237 689 135 689 q 407 628 339 689 q 470 485 470 569 q 352 304 470 381 q 256 163 256 244 l 207 163 q 307 361 207 283 q 380 484 380 417 q 337 593 380 552 q 231 633 294 633 q 113 572 169 633 q 93 542 104 557 q 72 506 81 526 l 67 506 l 67 622 m 193 7 q 176 51 176 28 q 193 93 176 74 q 234 109 213 109 q 275 93 256 109 q 294 51 294 76 q 277 8 294 26 q 235 -9 259 -9 q 193 7 211 -9 z "},"@":{"ha":609,"x_min":67,"x_max":531,"o":"m 319 -137 q 457 -20 402 -137 l 463 -20 l 463 -137 q 314 -194 409 -194 q 148 -113 219 -194 q 67 156 67 -20 q 148 424 67 331 q 314 504 217 504 q 469 433 411 504 q 520 248 520 365 l 520 135 q 531 0 520 72 l 415 0 q 419 24 419 11 q 422 50 420 37 q 339 -9 383 -9 q 243 30 272 -9 q 196 158 196 85 q 244 283 196 231 q 331 324 276 324 q 428 269 387 324 q 394 403 428 357 q 306 448 361 448 q 200 378 250 448 q 152 154 152 306 q 203 -68 152 2 q 319 -137 254 -137 m 278 156 q 350 48 278 48 q 404 79 380 48 q 428 156 428 109 q 407 235 428 202 q 346 270 380 270 q 296 235 313 270 q 278 156 278 202 z "},"A":{"ha":713,"x_min":0,"x_max":713,"o":"m 0 0 q 69 117 43 56 l 270 552 q 315 680 294 606 l 396 680 q 443 552 415 611 l 643 117 q 713 0 667 61 l 585 0 q 539 130 563 85 l 454 313 l 228 313 l 144 130 q 100 0 115 54 l 0 0 m 252 365 l 433 365 l 341 572 l 252 365 z "},"B":{"ha":524,"x_min":78,"x_max":478,"o":"m 78 0 q 89 135 89 67 l 89 546 q 78 680 89 611 l 241 680 q 369 638 317 680 q 420 527 420 596 q 367 411 420 457 q 328 383 344 389 q 409 350 374 378 q 478 206 478 294 q 412 58 478 117 q 233 0 346 0 l 78 0 m 180 135 q 185 56 180 122 l 233 56 q 346 94 304 56 q 389 200 389 133 q 346 306 389 267 q 233 350 306 350 l 180 350 l 180 135 m 185 624 q 180 546 180 563 l 180 406 l 243 406 q 309 438 281 406 q 337 515 337 470 q 315 591 337 559 q 243 624 287 624 l 185 624 z "},"C":{"ha":693,"x_min":46,"x_max":624,"o":"m 585 500 q 392 633 506 633 q 211 543 278 633 q 144 339 144 452 q 207 141 144 226 q 385 48 280 48 q 619 187 522 48 l 624 187 l 624 93 q 383 -9 522 -9 q 145 92 244 -9 q 46 339 46 193 q 144 587 46 485 q 374 689 243 689 q 589 619 506 689 l 589 500 l 585 500 z "},"D":{"ha":715,"x_min":78,"x_max":669,"o":"m 78 0 q 89 135 89 67 l 89 546 q 78 680 89 611 l 331 680 q 576 581 483 680 q 669 344 669 481 q 577 103 669 206 q 331 0 485 0 l 78 0 m 180 135 q 185 56 180 117 l 331 56 q 509 144 439 56 q 569 344 569 219 q 501 547 569 470 q 331 624 433 624 l 185 624 q 180 546 180 569 l 180 135 z "},"E":{"ha":485,"x_min":78,"x_max":441,"o":"m 180 135 q 185 56 180 122 l 306 56 q 441 69 380 56 l 441 0 l 78 0 q 89 135 89 67 l 89 546 q 78 680 89 611 l 387 680 l 387 611 q 252 624 309 624 l 185 624 q 181 583 183 604 q 180 546 180 563 l 180 369 l 252 369 q 387 383 298 369 l 387 300 q 252 313 330 313 l 180 313 l 180 135 z "},"F":{"ha":469,"x_min":78,"x_max":387,"o":"m 387 300 q 252 313 330 313 l 180 313 l 180 135 q 194 0 180 63 l 78 0 q 89 135 89 67 l 89 546 q 78 680 89 615 l 387 680 l 387 611 q 252 624 309 624 l 185 624 q 181 583 183 604 q 180 546 180 563 l 180 369 l 252 369 q 387 383 298 369 l 387 300 z "},"G":{"ha":731,"x_min":46,"x_max":665,"o":"m 665 369 l 665 143 q 385 -9 557 -9 q 143 93 246 -9 q 46 339 46 193 q 144 587 46 485 q 385 689 243 689 q 589 619 502 689 l 589 502 l 585 502 q 559 539 574 524 q 384 633 489 633 q 212 545 280 633 q 144 342 144 457 q 207 141 144 226 q 391 48 280 48 q 576 163 502 48 l 576 313 l 550 313 q 413 300 476 313 l 413 369 l 665 369 z "},"H":{"ha":706,"x_min":78,"x_max":631,"o":"m 513 0 q 528 135 528 67 l 528 313 l 180 313 l 180 135 q 194 0 180 63 l 78 0 q 89 135 89 67 l 89 546 q 78 680 89 611 l 194 680 q 180 546 180 613 l 180 369 l 528 369 l 528 546 q 513 680 528 613 l 631 680 q 617 546 617 626 l 617 135 q 631 0 617 63 l 513 0 z "},"I":{"ha":270,"x_min":78,"x_max":194,"o":"m 194 680 q 180 546 180 613 l 180 135 q 194 0 180 63 l 78 0 q 89 135 89 67 l 89 546 q 78 680 89 611 l 194 680 z "},"J":{"ha":270,"x_min":9,"x_max":194,"o":"m 194 680 q 180 546 180 613 l 180 52 q 9 -89 180 -89 l 9 -85 q 89 52 89 -50 l 89 546 q 78 680 89 611 l 194 680 z "},"K":{"ha":643,"x_min":78,"x_max":643,"o":"m 194 680 q 180 546 180 613 l 180 356 l 389 574 q 472 680 424 611 l 591 680 q 489 593 535 643 l 257 352 l 535 83 q 643 0 583 37 l 480 0 q 391 104 439 59 l 198 289 l 180 270 l 180 135 q 194 0 180 63 l 78 0 q 89 135 89 67 l 89 546 q 78 680 89 611 l 194 680 z "},"L":{"ha":450,"x_min":78,"x_max":441,"o":"m 180 135 q 185 56 180 122 l 306 56 q 441 69 380 56 l 441 0 l 78 0 q 89 135 89 67 l 89 546 q 78 680 89 611 l 194 680 q 180 546 180 613 l 180 135 z "},"M":{"ha":920,"x_min":54,"x_max":867,"o":"m 141 107 l 141 65 q 144 0 141 37 l 54 0 q 80 133 74 61 l 115 546 q 117 570 117 557 l 117 639 q 113 680 117 659 l 207 680 q 254 552 222 620 l 456 109 l 667 552 q 711 680 691 613 l 807 680 q 804 639 804 659 l 804 572 q 806 546 804 559 l 841 133 q 867 0 846 61 l 752 0 q 756 39 756 20 l 756 104 q 754 135 756 119 l 719 524 l 539 130 q 494 0 517 80 l 400 0 q 356 130 380 70 l 178 524 l 143 135 q 141 107 141 120 z "},"N":{"ha":706,"x_min":78,"x_max":631,"o":"m 631 680 q 617 546 617 626 l 617 135 q 631 0 617 63 l 537 0 q 467 117 500 69 l 156 537 l 156 135 q 167 0 156 67 l 78 0 q 89 135 89 67 l 89 546 q 78 680 89 611 l 170 680 q 243 563 204 611 l 554 148 l 554 546 q 539 680 554 626 l 631 680 z "},"O":{"ha":769,"x_min":46,"x_max":724,"o":"m 559 539 q 384 633 489 633 q 212 544 280 633 q 144 338 144 454 q 212 135 144 222 q 384 48 280 48 q 556 136 489 48 q 624 340 624 224 q 559 539 624 456 m 624 93 q 383 -9 522 -9 q 145 92 244 -9 q 46 339 46 193 q 144 587 46 485 q 383 689 243 689 q 624 587 524 689 q 724 339 724 481 q 624 93 724 196 z "},"P":{"ha":524,"x_min":78,"x_max":478,"o":"m 78 0 q 89 135 89 67 l 89 546 q 78 680 89 611 l 233 680 q 409 622 344 680 q 478 479 478 565 q 411 333 478 393 q 233 274 344 274 l 180 274 l 180 135 q 194 0 180 63 l 78 0 m 185 624 q 180 546 180 563 l 180 331 l 233 331 q 340 371 300 331 q 380 476 380 411 q 343 581 380 541 q 233 624 296 624 l 185 624 z "},"Q":{"ha":769,"x_min":46,"x_max":746,"o":"m 602 0 q 567 46 585 24 q 385 -9 483 -9 q 145 92 244 -9 q 46 339 46 193 q 144 587 46 485 q 383 689 243 689 q 624 587 524 689 q 724 342 724 481 q 628 94 724 202 l 639 83 q 746 0 689 37 l 602 0 m 483 248 q 567 150 509 211 l 572 146 q 624 350 624 244 q 559 539 624 456 q 384 633 489 633 q 212 545 280 633 q 144 340 144 457 q 212 135 144 222 q 385 48 280 48 q 520 96 463 48 l 446 165 q 339 248 400 206 l 483 248 z "},"R":{"ha":569,"x_min":78,"x_max":569,"o":"m 185 624 q 180 546 180 563 l 180 331 l 233 331 q 340 371 300 331 q 380 476 380 411 q 343 581 380 541 q 233 624 296 624 l 185 624 m 267 276 l 233 274 l 180 274 l 180 135 q 194 0 180 63 l 78 0 q 89 135 89 67 l 89 546 q 78 680 89 611 l 233 680 q 409 622 344 680 q 478 477 478 565 q 409 331 478 389 q 383 313 396 322 q 356 298 370 304 l 483 106 q 569 0 522 48 l 433 0 q 369 120 398 81 l 267 276 z "},"S":{"ha":476,"x_min":35,"x_max":439,"o":"m 39 174 q 206 48 107 48 q 317 92 280 48 q 354 193 354 135 q 276 311 354 270 l 178 365 q 69 535 69 426 q 137 661 69 613 q 244 689 176 689 q 359 646 313 689 l 359 552 l 356 552 q 339 580 344 569 q 255 633 306 633 q 183 611 204 633 q 150 532 150 583 q 219 446 150 481 l 309 398 q 439 204 439 331 q 374 54 439 109 q 206 -9 306 -9 q 35 57 107 -9 l 35 174 l 39 174 z "},"T":{"ha":500,"x_min":9,"x_max":491,"o":"m 491 611 q 356 624 409 624 l 300 624 q 296 585 296 604 l 296 135 q 309 0 296 63 l 191 0 q 204 135 204 63 l 204 585 q 200 624 204 604 l 144 624 q 9 611 91 624 l 9 680 l 491 680 l 491 611 z "},"U":{"ha":706,"x_min":78,"x_max":631,"o":"m 631 680 q 617 546 617 626 l 617 135 q 631 0 617 63 l 513 0 q 520 40 519 20 q 526 80 522 59 q 334 -9 443 -9 q 157 69 226 -9 q 89 291 89 148 l 89 546 q 78 680 89 611 l 194 680 q 180 546 180 613 l 180 291 q 213 137 180 187 q 350 59 261 59 q 491 130 439 59 q 528 291 528 185 l 528 546 q 513 680 528 613 l 631 680 z "},"V":{"ha":713,"x_min":0,"x_max":713,"o":"m 315 0 q 270 130 294 80 l 69 563 q 0 680 37 630 l 128 680 q 172 552 144 611 l 370 117 l 567 552 q 611 680 596 617 l 713 680 q 643 563 685 643 l 443 130 q 396 0 415 69 l 315 0 z "},"W":{"ha":893,"x_min":9,"x_max":885,"o":"m 206 0 q 183 133 200 72 l 59 554 q 9 680 43 617 l 128 680 q 150 546 133 611 l 272 135 l 393 546 q 419 680 413 607 l 506 680 q 530 546 511 611 l 650 135 l 772 546 q 798 680 791 607 l 885 680 q 833 554 859 637 l 713 133 q 687 0 696 87 l 585 0 q 561 133 580 72 l 446 524 l 333 133 q 307 0 315 72 l 206 0 z "},"X":{"ha":622,"x_min":19,"x_max":606,"o":"m 19 0 q 107 104 59 37 l 269 330 l 104 574 q 19 680 69 624 l 156 680 q 217 559 174 622 l 322 406 l 433 561 q 500 680 470 613 l 606 680 q 517 578 556 631 l 356 352 l 520 106 q 606 0 546 65 l 469 0 q 407 120 448 52 l 302 276 l 191 119 q 122 0 150 65 l 19 0 z "},"Y":{"ha":594,"x_min":0,"x_max":594,"o":"m 239 0 q 252 135 252 63 l 252 287 l 81 572 q 0 680 44 631 l 130 680 q 187 557 148 622 l 311 343 l 437 557 q 494 680 456 593 l 594 680 q 517 572 535 609 l 343 283 l 343 135 q 356 0 343 65 l 239 0 z "},"Z":{"ha":611,"x_min":28,"x_max":576,"o":"m 220 624 q 85 611 163 624 l 85 680 l 557 680 l 576 624 q 483 524 528 581 l 144 56 l 441 56 q 576 69 520 56 l 576 0 l 46 0 l 28 56 q 117 157 78 104 l 452 624 l 220 624 z "},"[":{"ha":361,"x_min":78,"x_max":339,"o":"m 204 -57 q 339 -44 261 -57 l 339 -113 l 78 -113 q 89 22 89 -65 l 89 657 q 78 794 89 706 l 339 794 l 339 724 q 204 735 270 735 l 185 735 q 180 657 180 707 l 180 22 l 185 -57 l 204 -57 z "},"\\":{"ha":507,"x_min":4,"x_max":502,"o":"m 393 -81 q 350 48 374 -13 l 74 644 q 4 761 46 706 l 113 761 q 159 633 137 676 l 433 35 q 502 -81 461 -22 l 393 -81 z "},"]":{"ha":361,"x_min":22,"x_max":285,"o":"m 178 -57 l 183 22 l 183 657 q 176 735 183 719 l 157 735 q 22 724 89 735 l 22 794 l 285 794 q 272 657 272 713 l 272 22 q 285 -113 272 -70 l 22 -113 l 22 -44 q 157 -57 100 -57 l 178 -57 z "},"^":{"ha":520,"x_min":89,"x_max":428,"o":"m 313 689 q 428 546 337 613 l 428 539 l 319 539 q 259 643 278 583 q 200 539 239 583 l 89 539 l 89 546 q 206 689 183 611 l 313 689 z "},"_":{"ha":556,"x_min":89,"x_max":467,"o":"m 89 -19 q 226 -31 152 -31 l 330 -31 q 467 -19 402 -31 l 467 -102 q 330 -87 402 -87 l 226 -87 q 89 -102 152 -87 l 89 -19 z "},"`":{"ha":359,"x_min":89,"x_max":270,"o":"m 206 539 q 89 685 120 609 l 89 689 l 198 689 q 270 546 198 613 l 270 539 l 206 539 z "},"a":{"ha":611,"x_min":46,"x_max":533,"o":"m 520 135 q 533 0 520 78 l 417 0 q 421 24 420 11 q 424 50 422 37 q 287 -9 372 -9 q 112 70 178 -9 q 46 247 46 150 q 109 424 46 344 q 278 504 176 504 q 422 448 380 504 q 417 481 422 465 l 533 504 q 520 369 520 426 l 520 135 m 391 393 q 286 448 350 448 q 185 393 222 448 q 144 248 144 344 q 185 102 144 152 q 286 48 222 48 q 390 100 350 48 q 430 248 430 152 q 391 393 430 344 z "},"b":{"ha":611,"x_min":78,"x_max":565,"o":"m 426 393 q 323 448 385 448 q 220 393 261 448 q 180 248 180 344 q 220 102 180 152 q 323 48 261 48 q 426 102 385 48 q 467 248 467 152 q 426 393 467 344 m 78 0 q 89 135 89 72 l 89 531 q 78 667 89 596 l 194 689 q 180 554 180 628 l 180 441 q 333 504 231 504 q 500 425 435 504 q 565 245 565 346 q 500 72 565 144 q 324 -9 435 -9 q 187 50 235 -9 q 190 24 189 37 q 194 0 191 11 l 78 0 z "},"c":{"ha":520,"x_min":46,"x_max":465,"o":"m 465 159 l 465 72 q 288 -9 398 -9 q 112 69 178 -9 q 46 245 46 146 q 109 424 46 344 q 287 504 176 504 q 437 452 374 504 l 437 331 l 433 331 q 394 393 419 367 q 289 448 352 448 q 185 393 226 448 q 144 248 144 344 q 185 102 144 152 q 287 48 222 48 q 461 159 396 48 l 465 159 z "},"d":{"ha":611,"x_min":46,"x_max":533,"o":"m 391 393 q 286 448 350 448 q 185 393 222 448 q 144 248 144 344 q 185 102 144 152 q 286 48 222 48 q 390 100 350 48 q 430 248 430 152 q 391 393 430 344 m 520 135 q 533 0 520 78 l 417 0 q 421 24 420 11 q 424 50 422 37 q 287 -9 372 -9 q 112 70 178 -9 q 46 247 46 150 q 109 424 46 344 q 278 504 176 504 q 430 441 380 504 l 430 531 q 417 667 430 604 l 533 689 q 520 554 520 611 l 520 135 z "},"e":{"ha":557,"x_min":46,"x_max":511,"o":"m 483 159 l 483 72 q 296 -9 415 -9 q 112 70 178 -9 q 46 247 46 150 q 109 424 46 344 q 289 504 176 504 q 469 415 402 504 q 511 248 511 350 l 509 220 l 144 220 q 185 102 150 141 q 307 48 228 48 q 478 159 415 48 l 483 159 m 419 276 q 389 393 419 354 q 284 448 346 448 q 185 393 222 448 q 144 276 150 352 l 419 276 z "},"f":{"ha":380,"x_min":22,"x_max":369,"o":"m 180 135 q 194 0 180 67 l 78 0 q 89 135 89 67 l 89 350 q 22 335 56 350 l 22 419 q 89 406 56 406 l 89 478 q 131 617 89 565 q 281 689 191 689 q 369 670 330 689 l 369 567 l 365 567 q 281 633 335 633 q 196 583 226 633 q 180 478 180 548 l 180 406 q 311 419 248 406 l 311 335 q 180 350 248 350 l 180 135 z "},"g":{"ha":611,"x_min":46,"x_max":533,"o":"m 391 393 q 286 448 350 448 q 185 393 222 448 q 144 248 144 344 q 185 102 144 152 q 286 48 222 48 q 390 100 350 48 q 430 248 430 152 q 391 393 430 344 m 533 504 q 520 369 520 426 l 520 61 q 465 -113 520 -50 q 284 -194 398 -194 q 106 -144 170 -194 l 106 -28 l 109 -28 q 150 -93 122 -70 q 275 -137 196 -137 q 391 -87 354 -137 q 430 56 430 -31 q 279 -9 380 -9 q 112 70 178 -9 q 46 247 46 150 q 109 424 46 344 q 278 504 176 504 q 422 448 380 504 q 417 481 422 465 l 533 504 z "},"h":{"ha":615,"x_min":78,"x_max":539,"o":"m 78 0 q 89 135 89 67 l 89 531 q 78 667 89 596 l 194 689 q 180 554 180 628 l 180 441 q 329 504 231 504 q 483 433 426 504 q 526 294 526 381 l 526 135 q 539 0 526 63 l 422 0 q 435 135 435 67 l 435 294 q 415 391 435 363 q 307 448 381 448 q 200 391 233 448 q 180 294 180 363 l 180 135 q 194 0 180 63 l 78 0 z "},"i":{"ha":270,"x_min":78,"x_max":194,"o":"m 78 0 q 89 135 89 67 l 89 346 q 78 481 89 413 l 194 504 q 180 369 180 443 l 180 135 q 194 0 180 63 l 78 0 m 135 569 q 94 586 111 569 q 78 628 78 604 q 93 672 78 652 q 135 689 113 689 q 176 672 157 689 q 194 631 194 656 q 177 587 194 606 q 135 569 159 569 z "},"j":{"ha":270,"x_min":9,"x_max":194,"o":"m 194 504 q 180 369 180 443 l 180 -52 q 9 -194 180 -194 l 9 -189 q 89 -52 89 -154 l 89 346 q 78 481 89 413 l 194 504 m 135 569 q 94 586 111 569 q 78 628 78 604 q 93 672 78 652 q 135 689 113 689 q 176 672 157 689 q 194 631 194 656 q 177 587 194 606 q 135 569 159 569 z "},"k":{"ha":572,"x_min":78,"x_max":572,"o":"m 78 0 q 89 135 89 67 l 89 531 q 78 667 89 596 l 194 689 q 180 554 180 628 l 180 285 l 291 389 q 378 496 343 435 l 496 496 q 393 407 441 452 l 256 280 l 465 83 q 572 0 526 30 l 409 0 q 319 104 378 52 l 196 217 l 180 198 l 180 135 q 194 0 180 63 l 78 0 z "},"l":{"ha":270,"x_min":78,"x_max":194,"o":"m 78 0 q 89 135 89 67 l 89 531 q 78 667 89 596 l 194 689 q 180 554 180 628 l 180 135 q 194 0 180 63 l 78 0 z "},"m":{"ha":920,"x_min":78,"x_max":843,"o":"m 620 448 q 506 294 506 448 l 506 135 q 520 0 506 63 l 402 0 q 415 135 415 67 l 415 294 q 394 393 415 365 q 297 448 363 448 q 200 394 231 448 q 180 294 180 363 l 180 135 q 194 0 180 63 l 78 0 q 89 135 89 67 l 89 346 q 78 481 89 413 l 194 504 q 185 444 189 485 q 326 504 239 504 q 467 430 413 504 q 630 504 528 504 q 789 433 731 504 q 830 294 830 378 l 830 135 q 843 0 830 63 l 726 0 q 741 135 741 63 l 741 294 q 720 393 741 359 q 620 448 685 448 z "},"n":{"ha":615,"x_min":78,"x_max":539,"o":"m 78 0 q 89 135 89 67 l 89 346 q 78 481 89 413 l 194 504 q 185 444 189 485 q 330 504 233 504 q 483 433 426 504 q 526 294 526 381 l 526 135 q 539 0 526 63 l 422 0 q 435 135 435 67 l 435 294 q 415 391 435 363 q 307 448 381 448 q 200 391 233 448 q 180 294 180 363 l 180 135 q 194 0 180 63 l 78 0 z "},"o":{"ha":576,"x_min":46,"x_max":530,"o":"m 391 393 q 286 448 350 448 q 185 393 222 448 q 144 248 144 344 q 185 102 144 152 q 286 48 222 48 q 390 100 350 48 q 430 248 430 152 q 391 393 430 344 m 465 72 q 288 -9 398 -9 q 112 70 178 -9 q 46 247 46 150 q 109 424 46 344 q 287 504 176 504 q 464 425 398 504 q 530 245 530 346 q 465 72 530 144 z "},"p":{"ha":611,"x_min":78,"x_max":565,"o":"m 426 393 q 323 448 385 448 q 220 393 261 448 q 180 248 180 344 q 220 102 180 152 q 323 48 261 48 q 426 102 385 48 q 467 248 467 152 q 426 393 467 344 m 194 504 q 185 444 189 485 q 324 504 239 504 q 500 425 435 504 q 565 245 565 346 q 500 72 565 144 q 332 -9 435 -9 q 180 56 230 -9 l 180 -50 q 194 -185 180 -120 l 78 -185 q 89 -50 89 -117 l 89 346 q 78 481 89 413 l 194 504 z "},"q":{"ha":611,"x_min":46,"x_max":533,"o":"m 391 393 q 286 448 350 448 q 185 393 222 448 q 144 248 144 344 q 185 102 144 152 q 286 48 222 48 q 390 100 350 48 q 430 248 430 152 q 391 393 430 344 m 520 -50 q 533 -185 520 -104 l 417 -185 q 430 -50 430 -120 l 430 56 q 279 -9 380 -9 q 112 70 178 -9 q 46 247 46 150 q 109 424 46 344 q 278 504 176 504 q 422 448 380 504 q 417 481 422 465 l 533 504 q 520 369 520 426 l 520 -50 z "},"r":{"ha":393,"x_min":78,"x_max":383,"o":"m 78 0 q 89 135 89 67 l 89 346 q 78 481 89 413 l 194 504 q 185 444 189 485 q 306 504 233 504 q 383 485 346 504 l 383 383 l 380 383 q 288 448 343 448 q 200 391 233 448 q 180 294 180 363 l 180 135 q 194 0 180 63 l 78 0 z "},"s":{"ha":396,"x_min":35,"x_max":361,"o":"m 294 385 q 211 448 267 448 q 167 436 187 448 q 146 394 146 424 q 193 335 146 363 l 276 285 q 361 156 361 235 q 307 34 361 78 q 189 -9 254 -9 q 93 6 111 -6 q 35 48 52 31 l 35 167 l 39 167 q 187 48 81 48 q 254 74 228 48 q 280 142 280 100 q 233 211 280 183 l 161 254 q 69 387 69 309 q 113 478 69 441 q 202 504 146 504 q 298 478 257 504 l 298 385 l 294 385 z "},"t":{"ha":369,"x_min":9,"x_max":361,"o":"m 230 472 q 361 485 283 472 l 361 402 q 230 417 298 417 l 230 135 q 244 0 230 63 l 128 0 q 139 135 139 67 l 139 417 q 9 402 72 417 l 9 485 q 139 472 91 472 l 139 531 q 128 667 139 596 l 244 689 q 230 554 230 628 l 230 472 z "},"u":{"ha":615,"x_min":78,"x_max":539,"o":"m 526 135 q 539 0 526 56 l 422 0 q 425 24 424 11 q 430 50 426 37 q 283 -9 380 -9 q 131 63 187 -9 q 89 202 89 117 l 89 346 q 78 481 89 413 l 194 504 q 180 369 180 443 l 180 202 q 200 104 180 135 q 307 48 235 48 q 435 202 435 48 l 435 346 q 422 481 435 413 l 539 504 q 526 369 526 443 l 526 135 z "},"v":{"ha":548,"x_min":0,"x_max":548,"o":"m 231 0 q 187 130 207 87 l 69 380 q 0 496 56 415 l 128 496 q 172 367 146 426 l 287 117 l 402 367 q 446 496 430 426 l 548 496 q 510 439 526 469 q 478 380 494 409 l 359 130 q 313 0 335 78 l 231 0 z "},"w":{"ha":776,"x_min":0,"x_max":776,"o":"m 174 0 q 143 133 165 72 l 57 372 q 0 496 41 422 l 119 496 q 150 363 126 437 l 241 113 l 324 363 q 356 496 344 430 l 446 496 q 478 363 452 437 l 567 113 l 650 363 q 683 496 672 430 l 776 496 q 719 372 733 420 l 633 133 q 602 0 611 72 l 502 0 q 470 133 493 72 l 387 365 l 304 133 q 274 0 281 67 l 174 0 z "},"x":{"ha":528,"x_min":19,"x_max":509,"o":"m 19 0 q 111 96 72 50 l 219 235 l 107 393 q 19 496 74 441 l 156 496 q 220 378 180 433 l 274 306 l 331 381 q 402 496 378 439 l 509 496 q 415 396 457 452 l 307 257 l 420 104 q 509 0 454 56 l 369 0 q 302 119 341 65 l 254 187 l 196 115 q 124 0 152 59 l 19 0 z "},"y":{"ha":615,"x_min":78,"x_max":539,"o":"m 78 481 q 104 488 87 483 q 143 495 120 493 q 194 504 165 498 q 180 369 180 443 l 180 202 q 200 104 180 135 q 307 48 235 48 q 415 104 380 48 q 435 202 435 135 l 435 346 q 422 481 435 413 l 539 504 q 526 369 526 443 l 526 61 q 470 -113 526 -46 q 297 -194 400 -194 q 128 -144 194 -194 l 128 -28 l 131 -28 q 172 -93 150 -74 q 291 -137 222 -137 q 394 -87 359 -137 q 435 56 435 -35 q 283 -9 383 -9 q 131 63 183 -9 q 89 202 89 122 l 89 346 q 78 481 89 413 z "},"z":{"ha":494,"x_min":28,"x_max":457,"o":"m 222 441 q 87 426 154 441 l 87 496 l 441 496 l 456 441 q 412 392 435 417 q 367 339 389 367 l 144 56 l 324 56 q 457 69 400 56 l 457 0 l 46 0 l 28 56 q 117 157 78 106 l 339 441 l 222 441 z "},"{":{"ha":385,"x_min":67,"x_max":317,"o":"m 317 787 q 235 650 235 752 l 235 480 q 107 341 235 356 q 235 202 235 328 l 235 30 q 317 -107 235 -67 l 317 -111 q 148 30 148 -111 l 148 202 q 67 339 148 300 l 67 343 q 148 480 148 383 l 148 650 q 317 794 148 794 l 317 787 z "},"|":{"ha":298,"x_min":100,"x_max":198,"o":"m 185 54 q 198 -81 185 -22 l 100 -81 q 113 54 113 -4 l 113 628 q 100 761 113 683 l 198 761 q 185 628 185 704 l 185 54 z "},"}":{"ha":385,"x_min":67,"x_max":317,"o":"m 67 794 q 235 650 235 794 l 235 480 q 317 343 235 383 l 317 339 q 235 202 235 300 l 235 30 q 67 -111 235 -111 l 67 -107 q 148 30 148 -67 l 148 202 q 278 341 148 328 q 148 480 148 356 l 148 650 q 67 787 148 752 l 67 794 z "},"~":{"ha":544,"x_min":89,"x_max":452,"o":"m 89 369 q 181 417 131 417 q 270 383 230 417 l 322 343 q 369 324 348 324 q 448 417 426 324 l 452 417 l 452 298 q 366 248 415 248 q 272 281 317 248 l 222 322 q 174 341 196 341 q 94 248 115 341 l 89 248 l 89 369 z "}," ":{"ha":361,"x_min":0,"x_max":0,"o":""},"¢":{"ha":520,"x_min":46,"x_max":465,"o":"m 304 -81 l 257 -81 l 257 -7 q 107 75 169 4 q 46 248 46 146 q 107 421 46 350 q 257 504 169 493 l 257 578 l 304 578 l 304 504 q 437 452 381 500 l 437 331 l 433 331 q 394 393 415 370 q 304 448 357 443 l 304 48 q 461 159 400 54 l 465 159 l 465 72 q 304 -7 402 -2 l 304 -81 m 257 444 q 185 393 215 435 q 144 248 144 344 q 185 102 144 152 q 257 50 213 61 l 257 444 z "},"©":{"ha":676,"x_min":89,"x_max":585,"o":"m 437 500 q 347 567 400 567 q 259 524 294 567 q 230 427 230 481 q 262 331 230 372 q 347 291 294 291 q 454 361 400 291 l 470 361 l 470 304 q 340 246 417 246 q 215 300 263 246 q 163 428 163 352 q 215 559 163 504 q 334 613 269 613 q 452 574 400 613 l 452 500 l 437 500 m 161 613 q 340 689 233 689 q 516 613 446 689 q 585 426 585 537 q 513 248 585 315 q 337 174 439 174 q 162 248 235 174 q 89 430 89 322 q 161 613 89 537 m 189 591 q 122 435 122 526 q 184 275 122 344 q 335 206 246 206 q 488 269 424 206 q 552 431 552 333 q 488 593 552 530 q 338 656 424 656 q 189 591 252 656 z "},"®":{"ha":676,"x_min":89,"x_max":585,"o":"m 494 278 q 552 433 552 337 q 488 593 552 530 q 338 656 424 656 q 189 591 252 656 q 122 435 122 526 q 184 275 122 344 q 329 206 246 206 q 470 254 411 206 l 420 254 q 387 319 407 291 l 339 393 l 309 393 l 309 331 q 319 254 309 304 l 239 254 q 246 331 246 283 l 246 535 q 239 613 246 583 l 328 613 q 420 581 389 613 q 457 504 457 550 q 420 422 457 457 q 402 409 415 417 l 461 322 q 494 278 474 300 m 161 613 q 340 689 233 689 q 516 613 446 689 q 585 426 585 537 q 513 248 585 315 q 337 174 439 174 q 162 248 235 174 q 89 430 89 322 q 161 613 89 537 m 309 439 l 328 439 q 374 456 357 439 q 391 503 391 472 q 373 550 391 533 q 328 567 356 567 l 311 567 q 309 552 309 557 l 309 439 z "},"¼":{"ha":719,"x_min":89,"x_max":630,"o":"m 594 78 q 604 0 594 52 l 524 0 q 531 78 531 37 l 531 81 l 372 81 l 359 120 q 383 146 372 133 q 407 174 394 159 l 494 296 q 528 359 517 324 l 604 359 q 594 281 594 307 l 594 130 q 630 137 609 130 l 630 81 l 594 81 l 594 78 m 531 128 l 531 272 l 428 128 l 531 128 m 141 0 q 211 117 180 52 l 411 552 q 454 680 439 615 l 556 680 q 485 563 517 631 l 285 130 q 241 0 259 70 l 141 0 m 152 333 q 161 411 161 367 l 161 617 l 119 576 l 89 609 l 159 674 l 233 689 q 224 619 224 652 l 224 411 q 233 333 224 378 l 152 333 z "},"½":{"ha":750,"x_min":89,"x_max":639,"o":"m 572 111 q 493 180 572 180 l 474 204 l 548 304 l 509 304 q 433 296 465 304 l 433 352 l 617 352 l 622 309 q 576 256 600 287 l 548 217 q 602 193 574 211 q 639 113 639 163 q 601 30 639 63 q 509 -4 563 -4 q 413 35 456 -4 l 413 107 l 430 107 q 452 72 439 85 q 505 41 472 41 q 555 62 537 41 q 572 111 572 83 m 141 0 q 211 117 180 52 l 411 552 q 454 680 444 637 l 556 680 q 485 563 517 631 l 285 130 q 241 0 259 70 l 141 0 m 152 333 q 161 411 161 367 l 161 617 l 119 576 l 89 609 l 159 674 l 233 689 q 224 619 224 652 l 224 411 q 233 333 224 378 l 152 333 z "},"¾":{"ha":748,"x_min":89,"x_max":657,"o":"m 622 130 q 657 137 639 130 l 657 81 l 622 81 l 622 78 q 633 0 622 44 l 552 0 q 561 78 561 46 l 561 81 l 402 81 l 389 120 q 435 174 417 148 l 522 296 q 557 359 541 322 l 633 359 q 622 281 622 315 l 622 130 m 561 128 l 561 272 l 456 128 l 561 128 m 169 0 q 239 117 198 33 l 439 552 q 483 680 470 624 l 583 680 q 513 563 546 628 l 313 130 q 270 0 285 54 l 169 0 m 248 446 q 169 513 248 513 l 150 537 l 226 639 l 187 639 q 111 631 143 639 l 111 685 l 294 685 l 302 644 q 254 591 274 620 l 224 550 q 282 523 250 546 q 315 448 315 500 q 276 363 315 396 q 187 331 244 331 q 89 369 130 331 l 89 443 l 107 443 q 130 406 119 415 q 183 378 152 378 q 248 446 248 378 z "},"Ä":{"ha":713,"x_min":0,"x_max":713,"o":"m 393 776 q 378 819 378 796 q 393 861 378 841 q 434 880 411 880 q 476 861 457 880 q 494 819 494 843 q 478 777 494 794 q 437 759 461 759 q 393 776 413 759 m 333 819 q 317 777 333 794 q 275 759 300 759 q 233 777 250 759 q 217 819 217 794 q 232 861 217 843 q 274 880 248 880 q 315 861 300 880 q 333 819 333 843 m 0 0 q 69 117 43 56 l 270 552 q 315 680 294 606 l 396 680 q 443 552 415 611 l 643 117 q 713 0 667 61 l 585 0 q 539 130 563 85 l 454 313 l 228 313 l 144 130 q 100 0 115 54 l 0 0 m 252 365 l 433 365 l 341 572 l 252 365 z "},"Å":{"ha":713,"x_min":0,"x_max":713,"o":"m 324 819 q 309 788 309 807 q 323 755 309 769 q 355 741 337 741 q 387 754 372 741 q 400 788 400 769 q 387 819 400 807 q 355 833 374 833 q 324 819 335 833 m 444 787 q 418 722 444 748 q 355 696 391 696 q 293 723 319 696 q 267 788 267 750 q 293 853 267 826 q 355 880 319 880 q 418 853 391 880 q 444 787 444 826 m 0 0 q 69 117 43 56 l 270 552 q 315 680 294 606 l 396 680 q 443 552 415 611 l 643 117 q 713 0 667 61 l 585 0 q 539 130 563 85 l 454 313 l 228 313 l 144 130 q 100 0 115 54 l 0 0 m 252 365 l 433 365 l 341 572 l 252 365 z "},"Ç":{"ha":693,"x_min":46,"x_max":624,"o":"m 585 500 q 392 633 506 633 q 211 543 278 633 q 144 339 144 452 q 207 141 144 226 q 385 48 280 48 q 619 187 522 48 l 624 187 l 624 93 q 411 -7 531 0 q 444 -102 444 -52 q 319 -194 444 -194 l 319 -131 q 378 -81 378 -131 q 354 -7 378 -37 q 138 99 230 4 q 46 340 46 194 q 144 587 46 485 q 374 689 243 689 q 589 619 506 689 l 589 500 l 585 500 z "},"É":{"ha":485,"x_min":78,"x_max":441,"o":"m 396 880 l 396 872 q 281 730 367 794 l 219 730 l 219 733 q 287 880 287 804 l 396 880 m 180 135 q 185 56 180 122 l 306 56 q 441 69 380 56 l 441 0 l 78 0 q 89 135 89 67 l 89 546 q 78 680 89 611 l 387 680 l 387 611 q 252 624 309 624 l 185 624 q 181 583 183 604 q 180 546 180 563 l 180 369 l 252 369 q 387 383 298 369 l 387 300 q 252 313 330 313 l 180 313 l 180 135 z "},"Ñ":{"ha":706,"x_min":78,"x_max":631,"o":"m 228 841 q 292 880 256 880 q 361 852 328 880 l 400 822 q 437 806 420 806 q 494 880 476 806 l 498 880 l 498 785 q 431 748 469 748 q 363 774 394 748 l 326 806 q 289 819 309 819 q 231 748 246 819 l 228 748 l 228 841 m 631 680 q 617 546 617 626 l 617 135 q 631 0 617 63 l 537 0 q 467 117 500 69 l 156 537 l 156 135 q 167 0 156 67 l 78 0 q 89 135 89 67 l 89 546 q 78 680 89 611 l 170 680 q 243 563 204 611 l 554 148 l 554 546 q 539 680 554 626 l 631 680 z "},"×":{"ha":622,"x_min":19,"x_max":606,"o":"m 19 0 q 107 104 59 37 l 269 330 l 104 574 q 19 680 69 624 l 156 680 q 217 559 174 622 l 322 406 l 433 561 q 500 680 470 613 l 606 680 q 517 578 556 631 l 356 352 l 520 106 q 606 0 546 65 l 469 0 q 407 120 448 52 l 302 276 l 191 119 q 122 0 150 65 l 19 0 z "},"÷":{"ha":587,"x_min":30,"x_max":528,"o":"m 507 291 l 30 291 l 48 415 l 528 415 l 507 291 m 262 231 q 280 231 262 231 q 319 205 298 231 q 335 133 341 178 q 300 63 330 89 q 234 37 270 37 q 177 63 198 37 q 161 133 156 89 q 196 205 167 178 q 262 231 226 231 m 327 711 q 345 711 327 711 q 385 684 363 711 q 401 612 407 657 q 365 542 394 567 q 299 517 335 517 q 243 542 263 517 q 229 612 222 567 q 263 684 235 657 q 327 711 291 711 z "},"Ȕ":{"ha":37,"x_min":0,"x_max":0,"o":""},"Ȝ":{"ha":30,"x_min":0,"x_max":0,"o":""},"ॐ":{"ha":1146,"x_min":50,"x_max":1067,"o":"m 589 1056 l 661 981 l 589 913 l 519 989 l 589 1056 m 422 944 q 572 861 483 861 q 720 944 661 861 l 813 867 q 628 769 724 769 q 389 920 489 769 l 422 944 m 752 574 q 789 483 789 554 l 789 361 q 867 235 789 235 q 974 296 930 235 q 1019 448 1019 357 q 979 594 1019 539 q 878 650 939 650 q 752 574 794 650 m 87 498 q 213 196 122 309 q 424 83 304 83 q 535 130 491 83 q 580 244 580 176 q 480 469 580 363 q 357 363 424 394 l 309 476 q 470 630 470 524 q 372 707 470 707 q 220 667 300 707 l 174 780 q 311 811 246 811 q 463 752 406 811 q 520 594 520 693 q 504 519 520 561 l 524 498 q 698 587 613 587 l 707 587 q 720 583 713 587 q 889 752 750 752 q 1067 457 1067 752 q 1012 221 1067 307 q 861 135 957 135 q 768 178 796 135 q 739 322 739 220 l 739 372 q 689 465 739 465 q 583 420 644 465 q 670 202 670 304 q 612 46 670 100 q 456 -7 554 -7 q 183 133 304 -7 q 50 489 70 257 l 87 498 z "},"।":{"ha":156,"x_min":-2,"x_max":76,"o":"m -2 656 l 76 656 l 76 94 l -2 94 l -2 656 z "},"॥":{"ha":339,"x_min":-2,"x_max":259,"o":"m 183 656 l 259 656 l 259 94 l 183 94 l 183 656 m -2 656 l 76 656 l 76 94 l -2 94 l -2 656 z "},"ఁ":{"ha":544,"x_min":2,"x_max":465,"o":"m 426 548 q 211 541 324 615 q 157 491 178 520 q 106 321 106 419 q 159 150 106 224 q 266 76 198 93 q 409 93 333 59 q 440 97 424 102 q 456 70 456 93 q 417 28 456 48 q 319 3 378 7 q 196 17 261 -2 q 81 93 131 35 q 2 313 2 180 q 78 539 2 446 q 311 644 172 650 q 410 619 369 641 q 461 572 452 596 q 454 547 465 556 q 426 548 443 539 z "},"ం":{"ha":663,"x_min":2,"x_max":583,"o":"m 83 94 q 43 140 83 94 q 2 319 2 187 q 83 533 2 450 q 297 622 167 622 q 509 526 428 622 q 583 299 583 435 q 504 81 583 163 q 294 0 424 0 q 83 94 165 0 m 522 336 q 522 388 522 336 q 459 502 522 441 q 292 563 396 563 q 124 502 187 563 q 61 333 61 441 q 126 167 61 233 q 287 94 193 94 q 454 163 385 94 q 522 336 522 231 z "},"ః":{"ha":280,"x_min":17,"x_max":200,"o":"m 17 507 q 42 581 17 552 q 109 609 67 609 q 200 507 200 609 q 175 438 200 467 q 109 409 150 409 q 17 507 17 409 m 100 557 q 52 507 52 557 q 100 457 52 457 q 143 507 143 457 q 100 557 143 557 m 17 146 q 43 219 17 187 q 109 250 69 250 q 200 146 200 250 q 174 78 200 107 q 109 48 148 48 q 17 146 17 48 m 100 198 q 52 149 52 198 q 100 100 52 100 q 143 149 143 100 q 100 198 143 198 z "},"అ":{"ha":828,"x_min":4,"x_max":757,"o":"m 637 96 q 363 -2 531 -2 q 100 100 194 -2 q 4 363 4 194 q 43 537 4 459 q 178 633 91 633 q 272 594 235 633 q 309 494 309 554 q 271 395 309 435 q 172 356 233 356 q 105 384 135 356 q 63 452 74 413 q 52 374 52 417 q 146 169 52 244 q 372 94 231 94 q 594 157 513 94 q 693 363 693 226 q 674 480 693 433 q 629 545 656 526 q 576 563 602 565 q 531 539 550 561 q 511 469 511 517 q 538 387 511 420 q 611 343 565 354 q 622 315 622 339 q 600 291 622 291 l 326 291 q 302 319 302 291 q 331 346 302 346 l 526 346 q 454 494 454 394 q 485 587 454 546 q 567 628 517 628 q 702 537 656 628 q 739 307 757 431 q 637 96 719 178 m 256 491 q 257 511 256 491 q 237 555 259 531 q 178 578 215 578 q 120 552 141 578 q 100 495 100 526 q 120 440 100 465 q 174 416 141 415 q 230 433 207 417 q 256 491 252 450 z "},"ఆ":{"ha":800,"x_min":2,"x_max":720,"o":"m 2 374 q 44 548 2 470 q 183 644 96 644 q 276 603 239 644 q 313 503 313 561 q 276 403 313 444 q 187 361 239 361 q 99 394 135 361 q 63 474 63 428 q 54 383 54 435 q 152 169 54 246 q 385 94 241 94 q 644 233 620 94 q 619 322 656 291 q 535 291 580 291 l 330 291 q 289 322 289 291 q 330 350 289 350 q 493 350 435 350 q 559 352 550 350 l 531 365 q 430 509 430 413 q 468 606 430 565 q 569 646 506 646 q 672 601 631 646 q 713 481 713 556 q 665 357 713 407 q 717 247 720 322 q 681 127 713 172 q 604 52 650 81 q 389 0 519 0 q 105 97 207 0 q 2 374 2 194 m 252 500 q 252 518 252 500 q 233 558 252 535 q 180 581 215 581 q 124 556 144 581 q 104 502 104 531 q 123 446 104 472 q 172 420 143 420 q 227 443 202 420 q 252 500 252 465 m 622 385 q 661 474 665 428 q 631 549 657 520 q 569 581 606 578 q 507 544 531 583 q 496 504 496 526 q 511 459 496 481 q 622 385 544 407 z "},"ఇ":{"ha":672,"x_min":-4,"x_max":593,"o":"m 517 -24 q 474 117 504 63 q 230 0 369 0 q 74 41 141 0 q -4 176 -4 89 q 61 307 -4 261 q 207 350 119 350 q 472 219 365 350 q 515 313 500 256 q 524 426 530 370 q 486 521 519 481 q 400 561 454 561 q 314 527 346 561 q 278 452 281 493 q 256 437 274 437 q 234 468 243 437 q 206 531 226 498 q 141 565 185 565 q 61 469 61 565 q 65 437 61 452 q 44 422 69 422 q 2 498 2 422 q 39 595 2 552 q 130 639 76 639 q 261 531 222 639 q 391 633 309 633 q 526 561 472 633 q 574 396 574 491 q 535 224 574 298 l 509 170 q 591 -31 580 76 q 556 -57 593 -57 q 517 -24 520 -57 m 420 200 q 207 300 330 300 q 150 290 185 300 q 87 261 115 280 q 59 159 19 217 q 123 112 80 131 q 224 93 167 93 q 439 183 350 93 l 420 200 z "},"ఈ":{"ha":1150,"x_min":-4,"x_max":1072,"o":"m 146 313 q 216 154 156 211 q 378 96 276 96 q 545 156 480 96 q 611 313 611 215 l 146 313 m 526 519 q 371 569 456 569 q 227 516 287 569 q 148 381 167 463 l 609 381 q 526 519 593 467 m 1019 221 q 1019 240 1019 221 q 991 286 1019 259 q 924 313 963 313 q 858 285 885 313 q 831 219 831 257 q 855 152 831 180 q 920 124 878 124 q 991 154 963 124 q 1019 221 1019 183 m 280 607 q 187 717 187 656 q 199 746 187 733 q 230 763 211 759 q 294 733 269 774 q 306 708 298 724 q 324 667 313 693 q 356 631 335 631 q 426 680 378 631 l 646 900 q 698 933 676 930 q 730 925 720 937 q 732 893 739 913 q 700 856 726 872 l 443 619 q 589 530 530 596 q 663 378 648 463 l 902 378 q 969 444 948 396 q 970 537 991 491 q 941 569 961 557 q 897 578 920 580 q 856 560 874 576 q 837 513 839 544 q 812 498 835 498 q 789 524 789 498 q 824 605 789 574 q 911 635 859 635 q 998 596 963 635 q 1033 502 1033 557 q 961 361 1033 417 q 1046 286 1020 337 q 1066 184 1072 235 q 1024 94 1059 133 q 930 56 989 56 q 836 82 870 56 q 789 149 802 109 q 786 233 776 189 q 831 313 796 278 l 669 313 q 593 87 672 169 q 372 -2 517 -2 q 215 52 283 -2 q 87 313 96 146 l 24 313 q -4 347 -4 313 q 24 381 -4 381 l 93 381 q 280 607 130 544 z "},"ఉ":{"ha":804,"x_min":-2,"x_max":724,"o":"m 350 822 q 396 767 396 822 q 367 624 396 752 q 412 628 372 628 q 506 608 452 628 q 594 550 561 589 q 600 521 606 539 q 576 504 594 504 q 544 514 557 504 q 507 537 530 524 q 361 569 454 569 q 137 439 222 569 l 683 439 q 713 406 713 439 q 683 374 713 374 l 111 374 q 91 262 91 322 q 122 152 91 202 q 219 93 157 93 q 323 132 281 93 q 365 230 365 172 q 385 256 365 256 q 406 228 406 256 q 450 131 406 170 q 553 93 494 93 q 638 124 611 93 q 666 191 665 156 q 647 256 667 226 q 593 287 628 287 q 559 270 570 287 q 520 233 539 243 q 485 244 493 228 q 489 281 478 259 q 524 322 500 304 q 583 343 548 341 q 685 293 646 343 q 724 174 724 243 q 680 52 724 106 q 568 -2 635 -2 q 449 37 500 -2 q 385 137 398 76 q 222 -2 350 -2 q 83 93 131 -2 q 46 267 46 163 q 61 374 46 306 l 33 374 q -2 406 -2 374 q 33 439 -2 439 l 83 439 q 213 585 133 541 q 337 620 250 606 q 307 767 307 748 q 350 822 307 822 z "},"ఊ":{"ha":1172,"x_min":-6,"x_max":1093,"o":"m 317 619 q 409 630 389 630 q 435 628 430 630 q 406 754 406 719 q 446 817 406 817 q 493 754 493 817 q 465 620 493 739 q 554 585 502 615 q 606 531 606 556 q 574 496 606 500 q 528 517 546 494 q 456 562 489 552 q 367 569 422 572 q 143 439 226 567 l 913 439 q 970 469 944 439 q 1004 538 996 500 q 996 606 1011 576 q 937 635 981 635 q 888 614 909 633 q 867 563 867 594 q 843 548 863 548 q 822 594 811 548 q 860 665 828 635 q 942 694 893 694 q 1025 657 991 694 q 1063 563 1059 620 q 1048 494 1063 522 q 993 420 1013 433 q 1093 274 1093 383 q 1056 165 1093 213 q 956 117 1020 117 q 853 158 893 117 q 813 261 813 200 q 861 372 813 322 l 115 372 q 94 281 94 322 q 102 207 94 239 q 126 152 109 176 q 222 93 163 93 q 322 132 281 93 q 365 219 363 172 q 382 267 367 267 q 406 220 398 267 q 454 133 413 174 q 552 93 494 93 q 636 121 609 93 q 666 186 663 150 q 651 251 669 222 q 600 280 633 280 q 552 254 578 280 l 539 241 q 504 230 517 219 q 491 254 491 241 q 519 315 491 289 q 582 342 548 341 q 644 329 617 343 q 689 293 670 315 q 724 174 724 244 q 683 54 724 104 q 563 -2 635 -2 q 385 137 424 -2 q 224 -2 350 -2 q 87 89 135 -2 q 50 242 50 159 q 63 372 50 324 l 33 372 q -6 407 -6 372 q 33 439 -6 439 l 87 439 q 289 613 156 578 q 257 756 257 696 q 300 815 257 815 q 343 759 343 815 q 317 619 343 752 m 1046 279 q 1046 301 1046 279 q 1016 351 1046 324 q 949 373 985 378 q 887 344 913 369 q 861 281 861 319 q 950 189 861 189 q 1019 211 991 189 q 1046 279 1046 233 z "},"ఋ":{"ha":1589,"x_min":2,"x_max":1509,"o":"m 1289 -2 q 1181 49 1230 -2 q 1109 165 1131 100 q 1034 48 1085 94 q 917 2 983 2 q 772 85 826 2 q 720 254 720 157 q 734 278 720 278 q 752 261 748 278 q 798 147 756 193 q 919 102 841 102 q 1040 162 998 102 q 1081 316 1081 222 q 1023 488 1081 409 q 872 567 965 567 q 837 600 837 567 q 863 633 837 633 q 1002 585 939 633 q 1130 287 1130 491 l 1130 272 q 1185 156 1141 200 q 1302 102 1233 102 q 1456 307 1456 102 q 1343 544 1456 474 q 1267 565 1328 552 q 1219 604 1219 578 q 1250 633 1219 633 q 1380 587 1317 633 q 1509 287 1509 483 q 1456 93 1509 181 q 1289 -2 1393 -2 m 552 0 q 441 47 493 0 q 383 152 389 94 q 317 44 378 85 q 184 0 256 0 q 57 53 113 0 q 2 183 2 106 q 111 356 2 306 q 235 385 148 374 q 295 417 272 389 q 319 486 319 444 q 288 555 319 528 q 212 581 257 581 q 131 547 167 581 q 94 473 94 513 q 56 433 94 433 q 20 474 20 433 q 71 592 20 546 q 196 637 122 637 q 319 593 270 637 q 374 476 374 550 q 219 331 374 350 q 65 213 65 311 q 191 94 65 94 q 301 137 252 94 q 361 243 350 180 q 383 269 367 269 q 400 243 396 269 q 450 143 407 183 q 550 94 494 94 q 670 170 624 94 q 704 323 704 233 q 646 489 704 413 q 552 556 606 544 q 487 577 496 570 q 478 606 478 583 q 512 635 478 635 q 569 628 546 635 q 754 296 754 557 q 707 104 754 189 q 552 0 652 0 z "},"ఌ":{"ha":815,"x_min":2,"x_max":735,"o":"m 567 452 q 544 383 567 411 q 485 335 520 356 q 409 295 450 315 q 338 245 369 276 q 303 178 307 215 q 314 109 298 141 q 362 56 330 78 q 456 33 394 33 q 566 55 517 33 q 644 107 615 76 q 684 178 674 139 q 691 250 694 217 q 671 309 687 283 q 636 340 656 335 q 608 356 617 344 q 600 377 600 367 q 608 394 600 387 q 640 401 617 402 q 688 365 663 400 q 724 278 713 330 q 730 167 735 226 q 694 56 724 107 q 448 -63 626 -63 q 323 -29 372 -63 q 252 57 274 6 q 241 167 230 109 q 352 307 257 261 q 478 384 446 352 q 509 458 509 417 q 480 531 509 500 q 398 561 450 561 q 314 527 346 561 q 278 452 281 493 q 256 437 274 437 q 234 468 243 437 q 206 531 226 498 q 141 565 185 565 q 61 469 61 565 q 65 437 61 452 q 44 422 69 422 q 2 498 2 422 q 39 595 2 552 q 130 639 76 639 q 261 531 222 639 q 389 633 309 633 q 526 578 480 633 q 567 452 567 531 z "},"ఎ":{"ha":781,"x_min":0,"x_max":702,"o":"m 596 30 q 498 0 556 0 q 398 36 441 0 q 333 122 356 72 q 176 0 285 0 q 50 57 104 0 q 0 191 0 111 q 44 326 0 270 q 169 381 89 381 q 307 304 252 381 q 341 239 330 272 q 374 174 352 206 q 500 100 433 100 q 650 350 650 100 q 576 630 650 478 q 493 733 544 694 q 350 791 413 791 q 309 827 309 791 q 352 863 309 863 q 460 830 394 863 q 571 737 526 796 q 644 607 617 678 q 702 319 702 467 q 596 30 702 109 m 281 201 q 283 224 281 201 q 255 285 285 246 q 169 324 224 324 q 86 288 115 324 q 57 202 57 252 q 93 126 57 152 q 171 100 128 100 q 246 128 215 100 q 281 201 278 156 z "},"ఏ":{"ha":781,"x_min":0,"x_max":702,"o":"m 596 30 q 498 0 556 0 q 398 36 441 0 q 333 122 356 72 q 176 0 285 0 q 50 57 104 0 q 0 191 0 111 q 44 326 0 270 q 169 381 89 381 q 307 304 252 381 q 341 239 330 272 q 374 174 352 206 q 500 100 433 100 q 626 185 589 100 q 648 367 654 248 q 617 533 643 463 q 492 732 570 674 q 350 791 413 791 q 309 827 309 791 q 352 863 309 863 q 460 830 394 863 q 571 737 526 796 q 644 607 617 678 q 702 319 702 467 q 596 30 702 109 m 281 201 q 283 224 281 201 q 255 285 285 246 q 169 324 224 324 q 86 288 115 324 q 57 202 57 252 q 93 126 57 152 q 171 100 128 100 q 246 128 215 100 q 281 201 278 156 m 159 769 q 136 746 159 746 q 109 767 113 746 q 102 837 102 807 q 226 1076 102 994 q 285 1100 263 1100 q 319 1088 307 1100 q 331 1059 330 1076 q 307 1013 337 1020 q 267 1002 276 1007 q 159 769 150 922 z "},"ఐ":{"ha":756,"x_min":0,"x_max":676,"o":"m 635 104 q 464 -4 578 -4 q 307 113 350 -4 q 157 -2 267 -2 q 43 52 89 -2 q 0 170 0 102 q 44 285 0 233 q 159 337 91 337 q 236 312 202 337 q 289 250 270 287 q 306 216 300 231 q 319 185 311 200 q 361 128 333 150 q 463 91 406 91 q 589 165 546 91 q 615 394 650 259 q 585 465 604 433 q 463 546 537 544 q 350 500 385 546 q 337 465 337 483 q 321 445 337 446 q 306 463 306 444 q 194 546 306 546 q 133 531 161 546 q 85 462 85 504 q 44 420 85 420 q 11 470 11 420 q 113 604 11 561 q 170 619 141 617 q 326 537 281 622 q 464 619 363 619 q 630 513 565 619 q 676 305 676 426 q 635 104 676 183 m 222 119 q 237 133 222 119 q 252 183 252 146 q 231 246 252 220 q 130 280 193 296 q 86 256 106 274 q 59 215 67 239 q 76 124 43 161 q 148 96 98 98 q 222 119 193 93 z "},"ఒ":{"ha":806,"x_min":2,"x_max":726,"o":"m 726 176 q 677 48 726 96 q 555 0 628 0 q 435 37 481 0 q 380 137 389 74 q 310 33 367 67 q 200 0 254 0 q 112 16 146 0 q 54 59 78 31 q 2 200 2 119 q 104 363 2 306 q 181 385 137 383 q 262 403 226 387 q 311 449 298 419 q 317 509 324 480 q 282 562 309 539 q 219 585 256 585 q 113 520 148 585 q 106 493 107 507 q 98 465 104 478 q 83 445 93 452 q 49 444 74 439 q 20 469 24 448 q 24 516 17 491 q 46 566 31 541 q 74 602 61 591 q 201 652 130 652 q 323 606 272 652 q 374 485 374 559 q 280 346 374 380 q 204 335 274 341 q 98 291 133 330 q 63 209 63 252 q 96 131 63 167 q 193 96 130 96 q 293 119 254 96 q 361 224 361 159 q 369 241 361 235 q 387 246 378 246 q 405 241 396 246 q 413 224 413 235 q 456 126 411 156 q 552 96 502 96 q 624 113 602 96 q 656 151 646 130 q 663 194 665 172 q 648 226 661 215 q 627 254 630 239 q 633 277 624 269 q 659 285 643 285 q 717 226 696 285 q 726 176 726 198 z "},"ఓ":{"ha":806,"x_min":2,"x_max":726,"o":"m 726 176 q 677 48 726 96 q 555 0 628 0 q 435 37 481 0 q 380 137 389 74 q 310 33 367 67 q 200 0 254 0 q 112 16 146 0 q 54 59 78 31 q 2 200 2 119 q 104 363 2 306 q 181 385 137 383 q 262 403 226 387 q 311 449 298 419 q 317 509 324 480 q 282 562 309 539 q 219 585 256 585 q 113 520 148 585 q 106 493 107 507 q 98 465 104 478 q 83 445 93 452 q 49 444 74 439 q 20 469 24 448 q 24 516 17 491 q 46 566 31 541 q 74 602 61 591 q 201 652 130 652 q 323 606 272 652 q 374 485 374 559 q 280 346 374 380 q 204 335 274 341 q 98 291 133 330 q 63 209 63 252 q 96 131 63 167 q 193 96 130 96 q 293 119 254 96 q 361 224 361 159 q 369 241 361 235 q 387 246 378 246 q 405 241 396 246 q 413 224 413 235 q 456 126 411 156 q 552 96 502 96 q 624 113 602 96 q 656 151 646 130 q 663 194 665 172 q 648 226 661 215 q 627 254 630 239 q 633 277 624 269 q 659 285 643 285 q 717 226 696 285 q 726 176 726 198 m 211 648 q 189 646 196 646 l 176 646 q 141 759 146 726 q 189 837 130 837 q 235 752 256 837 l 226 711 q 211 648 220 685 z "},"ఔ":{"ha":970,"x_min":-15,"x_max":891,"o":"m 726 176 q 677 48 726 96 q 555 0 628 0 q 435 37 481 0 q 380 137 389 74 q 310 33 367 67 q 200 0 254 0 q 112 16 146 0 q 54 59 78 31 q 2 200 2 119 q 104 363 2 306 q 181 385 137 383 q 262 403 226 387 q 311 449 298 419 q 317 509 324 480 q 282 562 309 539 q 219 585 256 585 q 113 520 148 585 q 106 493 107 507 q 98 465 104 478 q 83 445 93 452 q 49 444 74 439 q 20 469 24 448 q 24 516 17 491 q 46 566 31 541 q 74 602 61 591 q 201 652 130 652 q 323 606 272 652 q 374 485 374 559 q 280 346 374 380 q 204 335 274 341 q 98 291 133 330 q 63 209 63 252 q 96 131 63 167 q 193 96 130 96 q 293 119 254 96 q 361 224 361 159 q 369 241 361 235 q 387 246 378 246 q 405 241 396 246 q 413 224 413 235 q 456 126 411 156 q 552 96 502 96 q 624 113 602 96 q 656 151 646 130 q 663 194 665 172 q 648 226 661 215 q 627 254 630 239 q 633 277 624 269 q 659 285 643 285 q 717 226 696 285 q 726 176 726 198 m 873 659 q 864 639 873 659 q 817 593 856 619 q 733 567 778 567 q 661 578 689 567 q 611 607 633 589 q 565 770 537 669 q 596 833 576 811 l 398 833 q 433 743 433 800 q 328 600 433 622 q 195 627 257 630 q 63 594 133 624 l 22 594 q 2 623 2 594 q 22 652 2 652 l 298 652 q 385 743 385 652 q 364 806 385 778 q 307 833 343 833 l 22 833 q -15 874 -15 833 q 22 915 -15 915 l 719 915 q 852 843 800 915 q 887 749 883 798 q 873 659 891 700 m 833 731 q 833 757 833 731 q 802 811 833 783 q 722 839 770 839 q 641 809 674 839 q 607 733 607 780 q 640 657 607 687 q 719 628 672 628 q 800 654 767 628 q 833 731 833 680 z "},"క":{"ha":594,"x_min":0,"x_max":576,"o":"m 561 883 q 547 867 556 874 q 502 825 539 859 q 398 729 465 791 q 263 606 331 667 q 85 619 207 544 q 20 711 20 661 q 56 756 20 746 q 117 741 94 767 q 141 701 133 724 q 157 661 148 678 q 190 628 169 628 q 259 676 211 628 l 420 837 q 444 863 424 841 q 485 906 465 885 q 502 919 493 911 q 521 931 511 926 q 542 935 531 935 q 559 924 552 935 q 561 883 576 907 m 181 354 q 22 474 22 354 q 91 593 20 550 q 226 630 146 630 q 364 594 306 630 q 444 494 422 559 q 438 473 448 480 q 414 465 428 467 q 387 467 400 463 q 372 480 374 470 q 213 576 354 576 q 137 561 169 576 q 76 483 76 533 q 144 407 76 428 q 204 400 172 400 q 276 403 235 400 q 359 390 317 406 q 430 348 402 374 q 483 219 483 300 q 419 70 483 137 q 230 0 352 0 q 72 48 139 0 q 0 191 0 100 q 19 248 0 233 q 37 250 26 256 q 48 231 48 244 q 110 121 56 150 q 227 93 165 93 q 336 113 289 93 q 408 162 383 133 q 436 225 433 191 q 419 289 439 259 q 254 354 372 357 l 181 354 z "},"ఖ":{"ha":809,"x_min":-26,"x_max":730,"o":"m 546 0 q 367 128 439 0 q 185 0 300 0 q 46 54 100 0 q 15 230 -26 126 q 107 322 39 291 q 180 335 141 335 q 357 239 281 335 q 330 515 407 407 q 254 578 302 554 q 280 502 280 550 q 246 420 280 454 q 161 387 213 387 q 75 420 109 387 q 41 508 41 454 q 86 604 41 563 q 193 644 131 644 q 362 553 302 644 q 422 343 422 461 q 396 189 422 269 q 451 126 422 152 q 523 100 480 100 q 597 119 567 100 q 646 167 628 137 q 685 302 685 226 q 639 456 685 376 q 528 565 587 544 q 494 574 506 576 q 463 578 481 572 q 446 611 443 587 q 485 635 456 641 q 668 516 606 606 q 730 302 730 426 q 685 111 730 209 q 630 32 665 65 q 546 0 594 0 m 176 283 q 93 255 130 283 q 56 183 56 226 q 90 119 56 141 q 171 96 124 96 q 264 119 219 96 q 331 193 309 143 q 176 283 283 283 m 172 593 q 119 569 144 593 q 94 519 94 546 q 116 468 94 491 q 165 444 137 444 q 214 467 193 444 q 235 517 235 489 q 172 593 235 593 m 420 -85 q 405 -122 420 -109 q 369 -136 389 -135 q 333 -124 350 -137 q 317 -93 317 -111 q 324 -51 317 -74 q 341 -4 331 -28 q 357 39 350 20 q 367 63 365 57 q 420 -85 420 -37 z "},"గ":{"ha":635,"x_min":-15,"x_max":656,"o":"m 502 -4 q 450 44 450 -4 q 457 90 450 65 q 472 152 465 115 q 478 260 480 189 q 456 396 476 331 q 390 506 435 461 q 283 550 344 550 q 184 516 222 550 q 122 433 146 481 q 74 243 74 343 q 83 141 74 185 q 101 60 93 96 q 98 12 109 24 q 71 -2 87 0 q 40 4 56 -4 q 20 28 24 11 q 5 267 -15 146 q 87 494 24 387 q 274 630 165 630 q 450 526 376 630 q 531 352 502 456 q 561 167 561 263 l 561 122 q 537 17 561 56 q 502 -4 526 -4 m 341 607 q 269 583 317 583 q 174 613 220 583 q 102 731 80 674 q 149 759 113 763 q 200 731 185 756 q 233 663 213 717 q 269 630 250 630 q 337 678 287 630 l 557 898 q 594 928 572 913 q 636 926 617 943 q 642 888 656 909 q 611 856 628 867 l 341 607 z "},"ఘ":{"ha":1174,"x_min":-13,"x_max":1094,"o":"m 248 581 q 180 557 224 557 q 106 578 143 557 q 7 706 -13 639 q 61 737 19 741 q 141 639 109 731 q 173 604 156 604 q 244 654 191 604 l 465 874 q 501 904 478 889 q 546 902 524 919 q 547 865 561 885 q 519 830 533 844 l 248 581 m 978 26 q 881 0 935 0 q 791 25 828 0 q 730 87 754 50 q 683 257 683 157 q 700 280 683 280 q 711 272 711 280 q 759 148 711 200 q 880 94 809 94 q 1007 167 957 94 q 1048 304 1048 226 q 1015 446 1048 381 q 828 569 950 569 q 808 579 815 569 q 804 600 802 589 q 833 631 806 631 q 1031 517 956 631 q 1094 287 1094 420 q 978 26 1094 100 m 341 33 q 391 -116 391 -89 q 375 -156 391 -143 q 341 -169 359 -169 q 306 -156 322 -169 q 289 -125 289 -143 q 297 -83 289 -107 q 315 -33 306 -59 q 332 12 324 -7 q 341 33 341 31 m 493 0 q 396 32 441 0 q 331 119 352 65 q 272 31 315 61 q 181 2 230 2 q 101 18 133 2 q 48 59 69 33 q 0 193 0 120 q 44 323 0 265 q 173 381 89 381 q 307 311 257 381 q 331 268 324 289 q 344 224 337 246 q 398 141 363 170 q 445 109 420 124 q 504 94 470 94 q 622 176 569 94 q 661 317 661 233 q 622 470 661 400 q 504 557 578 557 q 463 595 463 557 q 504 633 463 633 q 667 519 607 633 q 713 314 713 428 q 659 111 713 200 q 493 0 594 0 m 282 209 q 283 231 282 209 q 256 288 283 252 q 171 324 228 324 q 85 289 115 324 q 85 133 28 217 q 168 94 111 94 q 253 131 224 94 q 282 209 281 167 z "},"ఙ":{"ha":806,"x_min":2,"x_max":726,"o":"m 726 176 q 677 48 726 96 q 555 0 628 0 q 435 37 481 0 q 380 137 389 74 q 310 33 367 67 q 200 0 254 0 q 112 16 146 0 q 54 59 78 31 q 2 200 2 119 q 104 363 2 306 q 181 385 137 383 q 262 403 226 387 q 311 449 298 419 q 317 509 324 480 q 282 562 309 539 q 219 585 256 585 q 113 520 148 585 q 106 493 107 507 q 98 465 104 478 q 83 445 93 452 q 49 444 74 439 q 20 469 24 448 q 24 516 17 491 q 46 566 31 541 q 74 602 61 591 q 201 652 130 652 q 323 606 272 652 q 374 485 374 559 q 326 370 374 404 q 207 334 281 339 q 98 291 133 330 q 63 209 63 252 q 96 131 63 167 q 193 96 130 96 q 293 119 254 96 q 361 224 361 159 q 369 241 361 235 q 387 246 378 246 q 405 241 396 246 q 413 224 413 235 q 456 126 411 156 q 552 96 502 96 q 624 113 602 96 q 656 151 646 130 q 663 194 665 172 q 648 226 661 215 q 627 254 630 239 q 633 277 624 269 q 659 285 643 285 q 717 226 696 285 q 726 176 726 198 m 350 407 q 364 435 359 417 q 372 463 369 454 l 507 463 q 500 483 506 467 q 487 519 494 500 q 469 592 469 569 q 485 628 469 615 q 520 640 502 641 q 556 626 539 639 q 574 595 574 613 q 531 463 574 578 l 659 463 q 679 454 672 463 q 685 433 685 444 q 678 415 685 422 q 659 407 670 407 l 350 407 z "},"చ":{"ha":824,"x_min":-2,"x_max":798,"o":"m 489 604 q 432 580 465 580 q 378 586 400 580 q 333 604 356 593 q 246 700 250 646 q 254 735 244 720 q 300 756 269 763 q 367 693 346 746 q 381 659 374 674 q 414 624 393 624 q 483 674 435 624 l 704 894 q 720 909 711 900 q 741 924 730 919 q 764 930 752 930 q 785 920 776 930 q 791 893 798 913 q 757 852 776 863 l 489 604 m 546 0 q 372 111 424 0 q 321 31 363 61 q 228 0 280 0 q 103 52 152 0 q 54 176 54 104 q 172 359 54 278 l 28 370 q -2 416 -2 374 q 37 457 -2 457 q 243 411 41 457 q 265 385 263 406 q 241 354 267 365 q 155 305 180 326 q 119 248 130 283 q 115 180 107 213 q 151 123 122 146 q 232 100 180 100 q 321 138 285 100 q 357 233 357 176 q 378 255 357 254 q 398 230 398 256 q 411 180 398 204 q 444 137 424 156 q 539 100 489 100 q 617 120 589 100 q 661 172 644 141 q 693 313 693 231 q 619 507 693 435 q 426 580 546 580 q 396 602 396 580 q 444 630 396 630 q 726 422 657 622 q 739 193 767 309 q 694 89 726 135 q 546 0 631 0 z "},"ఛ":{"ha":824,"x_min":-2,"x_max":798,"o":"m 489 604 q 432 580 465 580 q 378 586 400 580 q 333 604 356 593 q 246 700 250 646 q 254 735 244 720 q 300 756 269 763 q 367 693 346 746 q 381 659 374 674 q 414 624 393 624 q 483 674 435 624 l 704 894 q 720 909 711 900 q 741 924 730 919 q 764 930 752 930 q 785 920 776 930 q 791 893 798 913 q 757 852 776 863 l 489 604 m 378 39 q 409 -45 393 -2 q 426 -113 426 -89 q 410 -151 426 -137 q 376 -165 394 -165 q 342 -152 357 -165 q 326 -119 326 -139 q 333 -76 326 -100 q 350 -27 341 -52 q 369 18 359 -2 q 378 39 378 37 m 546 0 q 372 111 424 0 q 321 31 363 61 q 228 0 280 0 q 103 52 152 0 q 54 176 54 104 q 172 359 54 278 l 28 370 q -2 416 -2 374 q 37 457 -2 457 q 243 411 41 457 q 265 385 263 406 q 241 354 267 365 q 155 305 180 326 q 119 248 130 283 q 115 180 107 213 q 151 123 122 146 q 232 100 180 100 q 321 138 285 100 q 357 233 357 176 q 378 255 357 254 q 398 230 398 256 q 411 180 398 204 q 444 137 424 156 q 539 100 489 100 q 617 120 589 100 q 661 172 644 141 q 693 313 693 231 q 619 507 693 435 q 426 580 546 580 q 396 602 396 580 q 444 630 396 630 q 726 422 657 622 q 739 193 767 309 q 694 89 726 135 q 546 0 631 0 z "},"జ":{"ha":798,"x_min":2,"x_max":719,"o":"m 550 591 q 522 619 522 591 q 546 648 522 648 q 687 574 646 648 q 710 485 707 533 q 687 396 713 437 q 522 315 630 315 q 359 419 415 315 q 280 343 337 363 q 184 319 256 331 q 86 270 113 307 q 64 193 59 233 q 101 121 69 152 q 192 91 133 91 q 304 144 250 91 q 357 259 357 198 q 375 280 357 280 q 393 259 393 280 q 441 142 393 193 q 555 91 489 91 q 646 130 620 91 q 661 175 661 146 q 641 217 661 204 q 627 251 619 230 q 654 275 635 272 q 685 267 672 278 q 707 241 698 256 q 719 170 719 217 q 665 50 719 100 q 544 -2 613 -2 q 427 46 476 -2 q 372 163 378 94 q 305 44 357 91 q 178 -2 252 -2 q 53 55 104 -2 q 2 194 2 111 q 113 352 2 306 q 176 370 144 365 q 259 391 233 378 q 313 474 313 415 q 281 544 313 513 q 206 574 248 574 q 130 541 167 574 q 93 469 93 506 q 81 438 93 448 q 56 428 69 428 q 32 438 44 428 q 20 469 20 448 q 70 590 20 544 q 196 635 120 635 q 285 610 243 635 q 344 556 328 585 q 365 513 359 528 q 374 485 370 498 q 456 396 394 426 q 531 383 483 383 q 613 415 578 383 q 656 485 648 446 q 637 556 663 524 q 550 591 611 589 z "},"ఝ":{"ha":1419,"x_min":2,"x_max":1339,"o":"m 370 600 q 313 576 343 576 q 259 582 283 576 q 215 600 235 589 q 144 654 159 631 q 135 731 113 702 q 182 754 150 759 q 230 726 215 748 q 249 692 243 711 q 265 652 256 672 q 286 625 274 631 q 312 625 298 619 q 341 644 326 631 l 585 891 q 624 922 602 907 q 669 917 646 937 q 673 888 683 906 q 656 863 663 870 l 370 600 m 943 63 q 973 -21 956 22 q 991 -89 991 -65 q 974 -127 991 -113 q 939 -141 957 -141 q 905 -128 920 -141 q 889 -95 889 -115 q 897 -52 889 -76 q 915 -3 906 -28 q 933 42 924 22 q 943 63 943 61 m 1285 93 q 1218 23 1259 50 q 1131 -4 1176 -4 q 1058 12 1087 -4 q 1006 52 1030 28 q 939 163 956 102 q 868 48 917 96 q 738 0 819 0 q 604 80 657 0 q 550 252 550 159 q 566 276 550 276 q 581 259 581 276 q 637 142 587 183 q 744 96 687 100 q 816 113 781 96 q 870 163 850 130 q 911 322 917 226 q 857 481 904 420 q 704 565 800 561 q 670 575 680 565 q 661 597 661 585 q 669 620 661 609 q 693 631 676 631 q 881 541 809 639 q 952 333 939 461 q 1019 148 965 206 q 1130 94 1074 91 q 1219 129 1185 96 q 1270 208 1254 161 q 1286 313 1287 256 q 1265 422 1285 370 q 1202 513 1244 474 q 1094 563 1159 552 q 1056 580 1067 569 q 1044 602 1044 591 q 1054 622 1044 613 q 1080 631 1063 631 q 1194 598 1144 631 q 1274 515 1243 565 q 1339 285 1339 417 q 1285 93 1339 174 m 83 94 q 43 140 83 94 q 2 319 2 187 q 83 533 2 450 q 297 622 167 622 q 509 526 428 622 q 583 302 583 435 q 506 84 583 169 q 296 0 428 0 q 83 94 165 0 m 522 338 q 522 389 522 338 q 459 502 522 441 q 292 563 396 563 q 124 502 187 563 q 61 333 61 441 q 126 167 61 233 q 293 94 193 94 q 456 165 393 94 q 522 338 522 235 z "},"ఞ":{"ha":948,"x_min":0,"x_max":869,"o":"m 843 470 q 869 442 869 470 q 843 413 869 413 l 583 413 q 520 174 583 285 q 563 98 548 137 q 590 28 578 59 q 594 -19 602 -4 q 573 -41 587 -35 q 544 -37 559 -46 q 522 -4 528 -28 q 481 119 504 78 q 235 0 385 0 q 78 41 143 0 q 0 178 0 91 q 67 311 0 263 q 215 352 124 352 q 480 219 372 352 q 533 387 533 289 q 499 524 533 485 q 421 564 465 563 q 341 538 378 565 q 300 474 304 511 q 278 456 296 454 q 259 474 259 457 q 225 544 259 522 q 151 562 191 565 q 81 531 111 559 q 61 450 52 504 q 55 431 63 439 q 34 426 46 424 q 11 442 22 428 q 0 487 0 456 q 11 545 0 519 q 41 593 22 572 q 141 639 83 639 q 283 552 254 639 q 323 614 294 593 q 387 638 352 635 q 458 627 422 641 q 520 587 494 613 q 576 470 559 541 l 698 470 q 663 593 680 522 q 677 632 663 619 q 708 645 691 646 q 740 631 726 644 q 754 592 754 617 q 724 470 754 567 l 843 470 m 444 180 q 337 267 380 244 q 228 294 294 289 q 112 273 161 298 q 54 218 63 248 q 62 160 44 187 q 123 115 80 133 q 230 96 167 96 q 444 180 363 96 z "},"ట":{"ha":859,"x_min":2,"x_max":794,"o":"m 407 157 q 339 45 387 89 q 225 2 291 2 q 118 34 159 2 q 52 117 76 67 q 2 331 2 215 q 44 522 2 435 q 102 602 65 569 q 191 639 139 635 q 158 730 169 693 q 161 786 148 767 q 194 808 174 806 q 230 795 213 811 q 243 747 246 780 q 227 683 239 715 q 211 641 215 652 q 312 596 274 637 q 350 494 350 556 q 309 392 350 433 q 211 350 269 350 q 119 396 154 350 q 83 496 83 441 q 45 363 48 465 q 89 185 43 261 q 233 96 141 96 q 337 144 293 96 q 385 252 385 194 q 406 275 385 274 q 426 252 426 276 q 466 144 426 191 q 559 96 506 96 q 644 117 613 96 q 693 169 674 137 q 724 315 724 222 q 556 569 724 531 q 519 591 528 576 q 518 617 509 606 q 552 631 526 628 q 617 617 578 633 q 713 537 676 593 q 765 413 750 481 q 750 148 794 272 q 683 45 728 89 q 574 2 639 2 q 467 48 509 2 q 407 157 424 94 m 289 495 q 289 513 289 495 q 266 556 289 530 q 206 581 243 581 q 150 556 170 581 q 130 498 130 531 q 153 438 130 465 q 210 411 176 411 q 267 436 244 411 q 289 495 289 461 z "},"ఠ":{"ha":659,"x_min":2,"x_max":656,"o":"m 346 596 q 280 574 319 574 q 191 599 241 574 q 116 659 141 624 q 111 731 91 694 q 158 753 128 759 q 204 727 189 746 q 225 689 219 707 q 241 656 231 670 q 315 644 259 591 q 341 669 330 657 l 561 889 q 600 920 578 906 q 643 917 622 935 q 647 889 656 907 q 630 863 639 870 l 346 596 m 283 243 q 236 266 252 243 q 220 317 220 289 q 235 369 220 344 q 278 394 250 394 q 324 375 306 394 q 344 322 343 356 q 331 266 346 289 q 283 243 315 243 m 83 94 q 43 140 83 94 q 2 319 2 187 q 83 533 2 450 q 297 622 167 622 q 509 526 428 622 q 583 302 583 435 q 506 84 583 169 q 296 0 428 0 q 83 94 165 0 m 522 336 q 522 388 522 336 q 459 502 522 441 q 292 563 396 563 q 124 502 187 563 q 61 333 61 441 q 126 167 61 233 q 287 94 193 94 q 454 163 385 94 q 522 336 522 231 z "},"డ":{"ha":750,"x_min":-4,"x_max":696,"o":"m 391 606 q 333 581 363 581 q 280 588 304 581 q 233 607 256 594 q 161 665 180 637 q 147 701 150 680 q 156 739 144 722 q 202 759 170 767 q 248 733 233 752 q 283 661 265 709 q 331 630 304 617 q 359 651 344 637 q 387 676 374 665 l 607 896 q 661 933 644 933 q 687 925 678 933 q 695 906 696 917 q 689 887 694 896 q 661 854 680 869 l 391 606 m 494 -2 q 391 38 439 -2 q 330 141 343 78 q 268 33 317 72 q 154 -2 219 -6 q 53 56 89 2 q 6 184 17 111 q 9 335 -4 257 q 50 465 22 413 q 172 584 94 539 q 357 630 250 630 q 507 587 430 630 q 556 527 559 557 q 522 496 552 496 q 485 520 507 496 q 317 574 435 578 q 117 470 189 570 q 50 250 50 381 q 76 140 50 187 q 166 93 102 93 q 269 135 230 93 q 309 243 309 178 q 330 271 309 272 q 350 241 350 270 q 395 127 363 157 q 486 94 428 96 q 572 120 544 91 q 606 186 600 150 q 595 254 611 222 q 552 286 580 285 q 514 297 524 287 q 504 319 504 307 q 513 341 504 331 q 539 350 522 350 q 661 259 630 343 q 648 81 696 161 q 494 -2 594 -2 z "},"ఢ":{"ha":750,"x_min":-4,"x_max":696,"o":"m 331 63 q 364 -21 346 22 q 381 -89 381 -65 q 366 -127 381 -113 q 331 -141 350 -141 q 295 -128 311 -141 q 280 -95 280 -115 q 288 -52 280 -76 q 305 -3 296 -28 q 322 42 313 22 q 331 63 331 61 m 391 606 q 333 581 363 581 q 280 588 304 581 q 233 607 256 594 q 161 665 180 637 q 147 701 150 680 q 156 739 144 722 q 202 759 170 767 q 248 733 233 752 q 283 661 265 709 q 331 630 304 617 q 359 651 344 637 q 387 676 374 665 l 607 896 q 661 933 644 933 q 687 925 678 933 q 695 906 696 917 q 689 887 694 896 q 661 854 680 869 l 391 606 m 494 -2 q 391 38 439 -2 q 330 141 343 78 q 268 33 317 72 q 154 -2 219 -6 q 53 56 89 2 q 6 184 17 111 q 9 335 -4 257 q 50 465 22 413 q 172 584 94 539 q 357 630 250 630 q 507 587 430 630 q 556 527 559 557 q 522 496 552 496 q 485 520 507 496 q 317 574 435 578 q 117 470 189 570 q 50 250 50 381 q 76 140 50 187 q 166 93 102 93 q 269 135 230 93 q 309 243 309 178 q 330 271 309 272 q 350 241 350 270 q 395 127 363 157 q 486 94 428 96 q 572 120 544 91 q 606 186 600 150 q 595 254 611 222 q 552 286 580 285 q 514 297 524 287 q 504 319 504 307 q 513 341 504 331 q 539 350 522 350 q 661 259 630 343 q 648 81 696 161 q 494 -2 594 -2 z "},"ణ":{"ha":861,"x_min":0,"x_max":781,"o":"m 87 322 q 2 454 2 374 q 57 581 2 530 q 189 633 113 633 q 369 507 315 633 q 533 633 428 633 q 722 531 656 633 q 781 311 781 443 q 735 107 781 194 q 569 0 680 4 q 443 46 496 -4 q 391 169 391 94 q 429 292 391 243 q 530 341 467 341 q 629 305 593 341 q 665 216 665 269 q 646 115 665 163 q 698 176 678 133 q 724 270 719 219 q 694 465 737 394 q 533 557 639 557 q 437 507 483 557 q 391 409 391 457 q 372 387 391 387 q 354 409 354 387 q 320 493 354 448 q 244 550 287 537 q 159 554 200 563 q 91 512 119 544 q 63 439 63 480 q 90 374 63 398 q 152 350 117 350 l 215 350 q 241 327 241 350 q 215 304 241 304 l 165 304 q 92 271 124 304 q 59 191 59 239 q 91 118 59 143 q 161 93 122 93 q 233 115 200 93 q 267 176 267 137 q 289 200 267 200 q 319 140 319 200 q 273 40 319 80 q 160 0 228 0 q 46 48 93 0 q 0 165 0 96 q 87 322 0 276 m 624 191 q 624 212 624 191 q 599 261 624 233 q 534 289 574 289 q 470 261 494 289 q 446 191 446 233 q 472 126 446 148 q 531 103 498 104 q 594 125 565 102 q 624 191 624 148 z "},"త":{"ha":789,"x_min":0,"x_max":769,"o":"m 456 611 q 398 587 428 587 q 345 594 369 587 q 300 613 322 602 q 226 670 257 633 q 219 743 202 713 q 268 765 235 772 q 315 735 300 757 q 334 703 328 720 q 350 664 341 685 q 371 637 359 643 q 397 637 383 631 q 426 656 411 643 l 672 902 q 709 933 687 919 q 750 931 731 948 q 755 893 769 915 q 726 859 741 870 l 456 611 m 113 72 q 0 302 0 156 q 59 463 0 387 q 174 518 107 524 q 268 469 241 511 q 292 374 294 426 q 260 287 289 322 q 194 243 231 252 q 116 253 156 233 q 52 326 76 272 q 152 150 56 213 q 356 94 233 94 q 628 215 550 94 q 659 319 656 257 q 591 245 637 261 q 506 245 544 230 q 446 290 467 261 q 420 352 426 319 q 461 480 407 430 q 541 511 493 511 l 554 511 q 402 587 509 578 q 380 615 380 593 q 402 637 380 637 q 544 593 470 637 q 646 472 617 552 q 700 393 683 439 q 715 288 717 346 q 682 173 713 230 q 604 78 652 117 q 360 -2 507 -2 q 113 72 213 -2 m 231 376 q 231 393 231 376 q 213 431 231 409 q 162 452 194 452 q 107 430 130 452 q 85 377 85 407 q 109 321 85 346 q 162 296 133 296 q 211 319 191 296 q 231 376 231 343 m 554 452 q 499 430 520 452 q 478 374 478 407 q 500 316 478 341 q 555 291 522 291 q 608 316 587 291 q 630 375 630 341 q 608 431 630 409 q 554 452 587 452 z "},"థ":{"ha":761,"x_min":0,"x_max":730,"o":"m 344 61 q 394 -88 394 -61 q 379 -129 394 -115 q 344 -143 363 -143 q 310 -130 326 -143 q 294 -98 294 -117 q 302 -56 294 -80 q 319 -6 309 -31 q 336 39 328 19 q 344 61 344 59 m 411 609 q 354 585 383 585 q 301 593 324 585 q 256 611 278 600 q 183 669 206 635 q 176 743 156 706 q 223 764 193 770 q 267 739 254 757 q 304 665 291 707 q 380 656 326 606 q 407 680 394 669 l 628 900 q 664 931 641 917 q 707 926 687 946 q 696 874 730 913 q 680 857 691 867 l 411 609 m 340 484 q 353 484 340 484 q 389 464 367 483 q 410 406 411 444 q 387 351 409 369 q 339 333 365 333 q 292 352 313 333 q 270 409 270 370 q 292 467 270 448 q 340 484 313 485 m 643 85 q 586 23 620 48 q 514 -2 552 -2 q 450 11 476 -2 q 404 44 424 24 q 343 141 365 78 q 183 -2 289 -2 q 41 85 89 -2 q 0 266 0 157 q 44 463 0 374 q 261 622 109 587 q 363 633 304 633 q 569 556 483 633 q 685 256 685 454 q 643 85 685 159 m 606 426 q 345 581 530 581 q 81 430 161 581 q 54 338 63 394 q 53 228 44 281 q 90 135 61 174 q 181 96 119 96 q 283 136 243 96 q 324 241 324 176 q 343 261 324 261 q 361 237 361 261 q 373 188 361 213 q 404 141 385 163 q 502 96 443 96 q 593 132 561 96 q 633 220 624 169 q 606 426 650 317 z "},"ద":{"ha":761,"x_min":0,"x_max":730,"o":"m 411 609 q 354 585 383 585 q 301 593 324 585 q 256 611 278 600 q 183 669 206 635 q 176 743 156 706 q 223 764 193 770 q 267 739 254 757 q 304 665 291 707 q 380 656 326 606 q 407 680 394 669 l 628 900 q 664 931 641 917 q 707 926 687 946 q 696 872 730 913 q 680 857 689 863 l 411 609 m 643 85 q 586 23 620 48 q 514 -2 552 -2 q 450 11 476 -2 q 404 44 424 24 q 343 141 365 78 q 183 -2 289 -2 q 41 85 89 -2 q 0 266 0 157 q 44 463 0 374 q 261 622 109 587 q 363 633 304 633 q 569 556 483 633 q 685 256 685 454 q 643 85 685 159 m 606 426 q 345 581 530 581 q 81 430 161 581 q 54 338 63 394 q 53 228 44 281 q 90 135 61 174 q 181 96 119 96 q 283 136 243 96 q 324 241 324 176 q 343 261 324 261 q 361 237 361 261 q 373 188 361 213 q 404 141 385 163 q 502 96 443 96 q 593 132 561 96 q 633 220 624 169 q 606 426 650 317 z "},"ధ":{"ha":761,"x_min":0,"x_max":730,"o":"m 344 61 q 394 -88 394 -61 q 379 -129 394 -115 q 344 -143 363 -143 q 310 -130 326 -143 q 294 -98 294 -117 q 302 -56 294 -80 q 319 -6 309 -31 q 336 39 328 19 q 344 61 344 59 m 411 609 q 354 585 383 585 q 301 593 324 585 q 256 611 278 600 q 183 669 206 635 q 176 743 156 706 q 223 764 193 770 q 267 739 254 757 q 304 665 291 707 q 380 656 326 606 q 407 680 394 669 l 628 900 q 664 931 641 917 q 707 926 687 946 q 696 872 730 913 q 680 857 689 863 l 411 609 m 643 85 q 586 23 620 48 q 514 -2 552 -2 q 450 11 476 -2 q 404 44 424 24 q 343 141 365 78 q 183 -2 289 -2 q 41 85 89 -2 q 0 266 0 157 q 44 463 0 374 q 261 622 109 587 q 363 633 304 633 q 569 556 483 633 q 685 256 685 454 q 643 85 685 159 m 606 426 q 345 581 530 581 q 81 430 161 581 q 54 338 63 394 q 53 228 44 281 q 90 135 61 174 q 181 96 119 96 q 283 136 243 96 q 324 241 324 176 q 343 261 324 261 q 361 237 361 261 q 373 188 361 213 q 404 141 385 163 q 502 96 443 96 q 593 132 561 96 q 633 220 624 169 q 606 426 650 317 z "},"న":{"ha":759,"x_min":-4,"x_max":700,"o":"m 333 600 q 276 576 306 576 q 223 582 246 576 q 178 600 200 589 q 106 661 124 630 q 100 731 80 698 q 145 754 115 759 q 189 730 176 748 q 221 669 207 706 q 248 625 235 631 q 274 625 261 619 q 302 645 287 631 q 330 670 317 659 l 550 891 q 586 922 563 907 q 631 919 609 937 q 635 891 644 909 q 604 850 624 867 l 333 600 m 485 0 q 348 74 396 0 q 313 147 328 107 q 283 226 298 187 q 244 307 269 274 q 171 341 220 341 q 97 302 122 341 q 72 215 72 263 q 133 31 72 141 q 122 0 141 6 q 83 -6 104 -6 q 27 34 48 -6 q 1 130 6 74 q 8 244 -4 185 q 48 337 20 302 q 162 399 96 400 q 281 343 228 398 q 325 273 307 315 q 364 192 343 231 q 415 126 385 152 q 499 102 444 100 q 584 152 554 104 q 619 266 615 200 q 601 400 622 331 q 536 504 580 469 q 438 557 493 539 q 289 576 383 576 q 231 604 231 576 q 265 621 231 619 q 318 623 298 624 q 373 620 337 622 q 466 609 409 619 q 568 561 522 600 q 642 464 613 522 q 680 341 670 406 q 642 96 700 196 q 485 0 583 -4 z "},"ప":{"ha":791,"x_min":-4,"x_max":713,"o":"m 285 581 q 217 557 261 557 q 126 583 172 557 q 57 644 80 609 q 49 712 31 680 q 98 738 67 744 q 144 711 130 731 q 178 639 163 685 q 256 626 204 578 q 281 654 270 641 l 502 874 q 539 904 517 889 q 583 902 561 919 q 588 874 596 893 q 570 848 580 856 l 285 581 m 659 111 q 592 31 633 63 q 495 0 550 0 q 396 32 441 0 q 331 119 352 65 q 283 42 317 72 q 209 3 250 11 q 125 7 169 -6 q 50 59 81 20 q 4 159 11 104 q 13 264 -4 215 q 69 347 30 313 q 165 381 107 381 q 311 306 261 381 q 344 239 333 274 q 371 174 356 204 q 415 126 387 144 q 492 107 443 107 q 571 126 541 107 q 622 174 602 144 q 661 313 661 235 q 624 470 661 396 q 504 557 580 557 q 463 595 463 557 q 504 633 463 633 q 667 519 606 633 q 713 313 713 430 q 659 111 713 204 m 283 215 q 283 235 283 215 q 256 290 283 256 q 168 324 228 324 q 79 285 107 324 q 54 206 50 246 q 88 136 57 165 q 173 107 119 107 q 256 141 228 107 q 283 215 283 174 z "},"ఫ":{"ha":791,"x_min":-4,"x_max":713,"o":"m 333 56 q 367 -31 350 13 q 383 -97 383 -74 q 368 -134 383 -120 q 332 -148 352 -148 q 297 -135 313 -148 q 281 -104 281 -122 q 290 -61 281 -85 q 306 -13 298 -37 q 324 32 315 11 q 333 56 333 54 m 285 581 q 217 557 261 557 q 126 583 172 557 q 57 644 80 609 q 49 712 31 680 q 98 738 67 744 q 144 711 130 731 q 178 639 163 685 q 256 626 204 578 q 281 654 270 641 l 502 874 q 539 904 517 889 q 583 902 561 919 q 588 874 596 893 q 570 848 580 856 l 285 581 m 659 111 q 592 31 633 63 q 495 0 550 0 q 396 32 441 0 q 331 119 352 65 q 283 42 317 72 q 209 3 250 11 q 125 7 169 -6 q 50 59 81 20 q 4 159 11 104 q 13 264 -4 215 q 69 347 30 313 q 165 381 107 381 q 311 306 261 381 q 344 239 333 274 q 371 174 356 204 q 415 126 387 144 q 492 107 443 107 q 571 126 541 107 q 622 174 602 144 q 661 313 661 235 q 624 470 661 396 q 504 557 580 557 q 463 595 463 557 q 504 633 463 633 q 667 519 606 633 q 713 313 713 430 q 659 111 713 204 m 283 215 q 283 235 283 215 q 256 290 283 256 q 168 324 228 324 q 79 285 107 324 q 54 206 50 246 q 88 136 57 165 q 173 107 119 107 q 256 141 228 107 q 283 215 283 174 z "},"బ":{"ha":844,"x_min":2,"x_max":767,"o":"m 212 581 q 189 581 212 581 q 131 547 167 581 q 94 473 94 513 q 59 433 94 433 q 32 443 44 433 q 20 481 20 452 q 36 539 20 509 q 78 591 52 569 q 204 637 131 637 q 325 599 276 637 q 374 476 374 561 q 219 331 374 350 q 98 281 135 319 q 61 203 61 244 q 96 128 61 161 q 192 94 131 94 q 303 136 252 94 q 361 243 354 178 q 381 269 365 267 q 399 243 396 270 q 416 189 402 215 q 450 141 430 163 q 544 94 494 94 q 621 117 593 94 q 669 170 650 139 q 705 326 704 233 q 656 482 706 419 q 507 569 606 546 q 480 589 485 574 q 481 617 474 604 q 569 628 504 648 q 767 304 767 554 q 719 107 767 193 q 552 0 661 0 q 440 45 491 0 q 383 152 389 91 q 315 41 376 85 q 184 0 257 0 q 56 51 111 0 q 2 183 2 102 q 111 356 2 306 q 176 374 139 369 q 244 388 213 380 q 297 417 276 396 q 319 482 319 437 q 288 555 319 528 q 212 581 257 581 z "},"భ":{"ha":841,"x_min":2,"x_max":917,"o":"m 385 57 q 416 -31 398 13 q 433 -97 433 -74 q 417 -134 433 -120 q 381 -148 400 -148 q 347 -135 363 -148 q 331 -103 331 -122 q 339 -59 331 -83 q 356 -11 346 -35 q 375 34 367 13 q 385 57 383 56 m 606 591 q 534 565 576 565 q 445 591 493 565 q 378 650 398 617 q 368 719 350 687 q 417 745 385 752 q 463 719 448 739 q 495 656 483 689 q 520 617 507 622 q 546 617 533 611 q 602 663 563 624 l 822 883 q 858 913 835 898 q 902 909 881 928 q 907 881 917 898 q 891 856 898 863 l 606 591 m 212 581 q 189 581 212 581 q 131 547 167 581 q 94 473 94 513 q 59 433 94 433 q 32 443 44 433 q 20 481 20 452 q 36 539 20 509 q 78 591 52 569 q 204 637 131 637 q 325 599 276 637 q 374 476 374 561 q 219 331 374 350 q 98 281 135 319 q 61 203 61 244 q 96 128 61 161 q 192 94 131 94 q 303 136 252 94 q 361 243 354 178 q 381 269 365 267 q 399 243 396 270 q 416 189 402 215 q 450 141 430 163 q 544 94 494 94 q 621 117 593 94 q 669 170 650 139 q 705 326 704 233 q 656 482 706 419 q 507 569 606 546 q 509 590 493 574 q 541 607 526 606 q 607 593 570 613 q 767 304 767 502 q 719 107 767 193 q 552 0 661 0 q 440 45 491 0 q 383 152 389 91 q 315 41 376 85 q 184 0 257 0 q 56 51 111 0 q 2 183 2 102 q 111 356 2 306 q 176 374 139 369 q 244 388 213 380 q 297 417 276 396 q 319 482 319 437 q 288 555 319 528 q 212 581 257 581 z "},"మ":{"ha":1172,"x_min":-2,"x_max":1120,"o":"m 331 600 q 258 577 302 574 q 171 604 215 580 q 104 661 128 628 q 88 696 91 676 q 94 731 85 717 q 143 754 111 759 q 189 730 174 748 q 219 669 206 706 q 246 625 233 631 q 272 625 259 619 q 300 645 285 631 q 328 670 315 659 l 548 891 q 584 922 561 907 q 630 919 607 937 q 602 846 656 900 l 331 600 m 261 576 q 242 587 241 578 q 243 610 243 596 q 325 624 243 624 q 469 609 407 624 q 581 559 531 594 q 700 333 681 489 q 665 119 713 220 q 600 33 641 67 q 504 0 559 0 q 402 25 448 0 q 331 120 356 50 q 271 35 313 69 q 178 2 230 2 q 52 56 102 2 q 0 194 2 111 q 45 325 -2 278 q 169 378 93 372 q 251 357 215 380 q 307 303 287 335 q 344 235 328 270 q 380 169 359 200 q 506 96 426 96 q 570 121 541 96 q 618 186 600 146 q 640 276 635 226 q 633 374 644 326 q 504 539 606 483 q 261 576 439 570 m 285 206 q 286 227 285 206 q 259 286 287 248 q 177 325 231 324 q 93 291 122 326 q 60 214 63 256 q 84 137 57 172 q 169 99 111 102 q 256 130 228 96 q 285 206 283 163 m 970 30 q 872 0 928 0 q 781 24 817 0 q 720 85 744 48 q 670 256 670 163 q 689 280 670 280 q 700 270 700 280 q 748 148 700 200 q 867 96 798 96 q 993 165 946 96 q 1037 309 1033 224 q 978 483 1041 409 q 815 567 913 559 q 794 577 802 567 q 785 599 785 587 q 794 621 785 611 q 824 631 804 631 q 946 599 894 631 q 1030 519 998 567 q 1076 198 1120 385 q 970 30 1048 83 z "},"య":{"ha":1435,"x_min":2,"x_max":1356,"o":"m 731 594 q 659 574 691 565 q 570 600 615 578 q 504 657 526 622 q 495 725 478 693 q 544 751 513 757 q 589 726 576 744 q 624 652 607 700 q 674 622 644 607 q 728 667 691 630 l 948 887 q 985 918 963 902 q 1030 915 1007 933 q 1034 887 1043 906 q 1019 859 1026 869 l 731 594 m 1296 87 q 1135 0 1233 0 q 985 85 1039 0 q 937 256 941 157 q 954 280 937 280 q 967 270 967 280 q 1015 148 967 200 q 1133 96 1063 96 q 1263 167 1217 96 q 1304 309 1304 226 q 1244 487 1304 409 q 1081 567 1181 567 q 1066 577 1072 567 q 1059 599 1059 587 q 1067 621 1059 611 q 1089 631 1074 631 q 1294 519 1198 631 q 1356 311 1356 439 q 1296 87 1356 176 m 646 615 l 700 617 q 746 609 724 617 q 887 506 830 576 q 969 259 969 407 q 915 78 969 156 q 757 0 861 0 q 622 63 685 0 q 559 194 563 122 q 453 53 526 106 q 283 0 380 0 q 78 93 157 0 q 2 308 2 180 q 78 530 2 437 q 292 630 157 630 q 520 504 426 630 q 585 283 569 435 q 643 156 589 217 q 766 96 696 96 q 869 138 835 96 q 909 240 902 180 q 900 363 917 300 q 772 539 869 474 q 687 569 733 565 q 644 575 674 569 q 599 587 613 581 q 585 606 585 593 q 610 617 585 619 q 646 615 635 615 m 463 498 q 293 578 391 578 q 198 556 244 578 q 121 498 152 535 q 75 415 91 461 q 59 322 59 369 q 128 159 59 217 q 284 96 191 96 q 434 137 378 96 q 512 240 491 178 q 521 371 533 302 q 463 498 509 441 z "},"ర":{"ha":663,"x_min":2,"x_max":672,"o":"m 367 600 q 206 602 311 548 q 124 696 133 637 q 131 731 120 717 q 179 753 146 759 q 226 726 211 746 q 256 668 241 706 q 283 624 270 630 q 309 626 296 619 q 363 670 326 633 l 583 891 q 637 926 619 926 q 664 919 656 926 q 671 901 672 911 q 666 881 670 891 q 652 863 661 870 l 367 600 m 287 0 q 74 96 154 0 q 2 309 2 183 q 81 533 2 446 q 300 622 163 622 q 509 526 426 622 q 585 356 574 448 q 566 185 596 263 q 463 54 535 107 q 287 0 391 0 m 129 161 q 161 126 129 161 q 290 95 193 91 q 455 164 387 100 q 522 334 522 228 q 459 502 522 441 q 294 563 396 563 q 128 493 191 563 q 65 327 65 422 q 129 161 65 231 z "},"ఱ":{"ha":844,"x_min":0,"x_max":767,"o":"m 330 294 q 302 320 302 294 q 330 346 302 346 l 531 346 q 463 496 463 411 q 494 590 463 548 q 576 631 526 631 q 724 519 672 631 q 767 319 767 424 q 717 115 767 215 q 557 -2 657 -2 q 450 40 500 -2 q 385 152 400 81 q 319 31 369 69 q 219 -4 270 -7 q 39 131 109 7 q 0 327 0 211 q 44 528 0 443 q 196 635 96 635 q 284 593 250 635 q 319 494 319 550 q 282 396 319 437 q 194 356 246 356 q 111 390 143 356 q 76 474 80 424 q 48 331 48 415 q 85 178 48 246 q 213 94 130 94 q 304 112 280 94 q 340 149 328 130 q 362 193 352 169 q 385 219 372 217 q 409 198 398 220 q 469 126 426 157 q 567 94 511 94 q 656 137 622 94 q 703 241 691 180 q 707 366 715 302 q 684 473 700 430 q 639 538 669 517 q 581 559 609 559 q 537 537 554 559 q 533 437 509 502 q 569 378 544 404 q 606 348 593 352 q 625 336 619 344 q 630 319 631 328 q 593 294 624 294 l 330 294 m 194 422 q 207 424 194 422 q 240 446 220 426 q 259 506 259 467 q 238 564 259 546 q 186 581 217 581 q 131 553 156 581 q 112 485 106 524 q 143 432 119 446 q 194 422 167 419 z "},"ల":{"ha":794,"x_min":2,"x_max":726,"o":"m 337 0 q 256 0 337 0 q 89 94 176 0 q 2 356 2 187 q 52 541 2 457 q 211 633 109 633 q 308 589 274 633 q 344 493 343 544 q 313 397 344 441 q 215 354 281 354 q 115 399 148 354 q 85 498 81 444 q 56 368 54 444 q 85 242 59 291 q 152 159 111 193 q 352 96 230 96 q 556 159 474 96 q 627 248 604 194 q 650 358 650 302 q 623 466 650 415 q 544 546 596 517 q 495 564 522 559 q 449 571 469 569 q 423 583 430 574 q 418 605 417 593 q 429 627 419 617 q 457 635 439 637 q 656 530 587 624 q 702 285 726 431 q 596 89 681 165 q 337 0 498 0 m 287 483 q 271 553 296 530 q 217 579 246 576 q 162 568 187 581 q 125 517 137 554 q 136 446 113 480 q 192 409 159 413 q 253 423 224 406 q 287 483 281 441 z "},"ళ":{"ha":598,"x_min":0,"x_max":683,"o":"m 370 606 q 298 581 339 574 q 207 607 252 585 q 128 700 137 646 q 135 739 124 722 q 182 759 150 767 q 230 730 215 752 q 249 695 243 715 q 265 656 256 676 q 286 629 274 635 q 312 629 298 622 q 341 648 326 635 l 587 896 q 624 926 602 911 q 665 925 646 941 q 669 887 683 909 q 641 854 656 865 l 370 606 m 367 278 q 412 220 396 256 q 426 157 428 185 q 376 40 424 81 q 260 -2 328 -2 q 140 33 193 -2 q 81 139 87 69 q 94 212 78 174 q 141 276 109 250 q 40 344 80 306 q 0 455 0 383 q 40 564 0 526 q 139 602 80 602 q 236 567 198 602 q 274 481 274 531 q 244 399 274 430 q 169 369 215 369 q 95 398 122 369 q 69 473 69 428 q 94 544 69 519 q 41 457 41 504 q 109 344 41 387 q 242 309 165 309 q 389 339 319 309 q 474 452 474 378 q 333 574 474 544 q 269 585 298 581 q 251 606 241 593 q 281 622 261 620 q 478 556 396 626 q 523 472 520 520 q 512 394 526 424 q 476 339 498 363 q 367 278 431 289 m 169 544 q 126 525 143 544 q 111 478 109 506 q 170 415 113 415 q 215 432 198 413 q 231 480 231 452 q 169 544 231 544 m 252 269 q 172 237 204 269 q 141 164 141 206 q 171 99 141 122 q 249 75 202 76 q 329 98 296 74 q 362 167 361 122 q 331 240 363 211 q 252 269 300 269 z "},"వ":{"ha":785,"x_min":-2,"x_max":722,"o":"m 331 600 q 257 576 302 572 q 170 604 213 580 q 104 661 128 628 q 88 696 91 676 q 94 731 85 717 q 143 754 111 759 q 189 730 174 748 q 219 669 206 706 q 246 625 233 631 q 272 625 259 619 q 300 645 285 631 q 328 670 315 659 l 548 891 q 584 922 561 907 q 630 919 607 937 q 602 846 656 900 l 331 600 m 600 33 q 504 0 559 0 q 402 25 448 0 q 331 120 356 50 q 271 35 313 69 q 178 2 230 2 q 52 56 102 2 q 0 194 2 111 q 45 325 -2 278 q 169 378 93 372 q 251 357 215 380 q 307 303 287 335 q 344 235 328 270 q 380 169 359 200 q 506 96 426 96 q 570 121 541 96 q 618 186 600 146 q 640 276 635 226 q 633 374 644 326 q 504 539 606 483 q 397 569 467 557 q 261 576 328 580 q 242 588 241 580 q 243 611 243 596 q 270 622 243 619 q 331 630 309 630 q 370 630 356 630 q 448 619 389 630 q 622 522 556 602 q 696 226 722 400 q 600 33 680 98 m 285 206 q 286 227 285 206 q 259 286 287 248 q 177 325 231 324 q 93 291 122 326 q 60 214 63 256 q 84 137 57 172 q 169 99 111 102 q 256 130 228 96 q 285 206 283 163 z "},"శ":{"ha":550,"x_min":-2,"x_max":609,"o":"m 296 607 q 219 583 265 580 q 132 610 174 587 q 74 659 91 633 q 57 737 39 706 q 107 761 76 769 q 152 735 139 754 q 186 672 174 706 q 211 633 198 639 q 237 633 224 628 q 291 678 254 641 l 511 898 q 593 924 561 956 q 594 889 609 915 q 581 872 589 880 l 296 607 m 313 0 q 211 54 252 0 q 172 173 172 104 q 218 299 172 243 q 335 380 263 356 q 224 424 274 424 q 132 395 174 424 q 82 337 91 367 q 69 284 74 307 q 30 261 63 261 q 8 275 19 263 q -2 307 -2 287 q 56 430 -2 380 q 187 480 115 480 q 380 402 289 480 q 415 511 444 454 q 294 580 383 569 q 254 583 272 583 l 220 583 q 202 606 202 583 q 241 630 202 630 q 309 622 280 630 q 406 587 365 613 q 465 526 448 561 q 413 365 504 441 q 474 201 474 289 q 434 56 474 113 q 313 0 394 0 m 378 344 q 228 196 228 300 q 256 125 228 156 q 328 94 285 94 q 399 125 370 94 q 428 200 428 156 q 378 344 428 278 z "},"ష":{"ha":861,"x_min":0,"x_max":781,"o":"m 280 581 q 246 564 269 572 q 192 560 224 556 q 118 587 159 565 q 51 644 76 609 q 44 712 26 680 q 92 738 61 744 q 141 709 122 731 q 172 639 161 674 q 248 626 198 580 q 276 654 263 641 l 496 874 q 532 904 509 889 q 578 902 556 919 q 581 872 589 891 q 550 831 570 846 l 280 581 m 670 -57 q 656 74 639 0 q 506 -6 596 -6 q 406 31 452 -6 q 335 120 359 69 q 172 0 300 0 q 48 57 100 0 q 0 187 0 113 q 37 319 0 261 q 167 383 83 383 q 339 241 309 387 q 502 96 400 96 q 624 169 580 96 q 663 320 663 228 q 630 474 663 400 q 500 561 587 561 q 470 573 480 561 q 462 598 461 585 q 472 623 463 611 q 500 635 481 635 q 706 420 643 635 q 704 187 733 333 q 694 76 693 107 q 750 -20 698 7 q 781 -70 781 -35 q 772 -94 781 -83 q 744 -106 763 -106 q 670 -57 702 -106 m 283 206 q 253 294 287 263 q 169 325 219 326 q 87 292 119 324 q 56 208 56 259 q 87 129 56 157 q 167 97 119 100 q 247 121 215 94 q 283 206 280 148 z "},"స":{"ha":791,"x_min":2,"x_max":713,"o":"m 267 581 q 183 559 222 554 q 103 587 144 565 q 44 633 61 609 q 28 713 9 681 q 78 738 46 744 q 123 712 109 731 q 144 674 137 693 q 160 634 152 656 q 181 607 169 613 q 207 607 194 602 q 261 654 230 617 l 481 874 q 519 904 496 889 q 563 902 541 919 q 552 846 583 885 q 535 831 544 837 l 267 581 m 656 106 q 584 30 628 59 q 496 0 541 0 q 369 54 422 0 q 311 150 328 94 q 278 246 294 211 q 223 307 254 287 q 160 326 193 328 q 102 296 128 324 q 76 213 76 269 q 91 107 76 152 q 118 45 106 63 q 125 17 130 28 q 107 2 120 6 q 54 9 74 -7 q 25 46 33 26 q 11 89 17 67 q 2 171 2 128 q 12 251 2 215 q 41 315 22 287 q 164 381 83 381 q 298 328 244 381 q 339 264 324 302 q 370 191 354 226 q 415 131 387 156 q 501 106 443 106 q 596 143 559 106 q 647 234 633 180 q 656 350 661 289 q 633 456 650 411 q 524 557 594 552 q 473 572 489 559 q 459 599 457 585 q 473 624 461 613 q 506 635 485 635 q 669 517 613 624 q 713 309 713 422 q 656 106 713 196 z "},"హ":{"ha":1174,"x_min":2,"x_max":1094,"o":"m 257 581 q 224 562 246 569 q 169 559 202 556 q 95 586 137 563 q 29 644 54 609 q 21 710 4 678 q 70 737 39 743 q 137 674 117 726 q 153 633 144 654 q 174 606 161 613 q 200 607 187 600 q 254 652 217 615 l 474 872 q 511 904 489 889 q 556 900 533 919 q 559 872 569 891 q 528 831 548 848 l 257 581 m 941 622 q 1048 576 1007 622 q 1092 476 1089 530 q 1081 391 1094 422 q 1048 337 1069 359 q 959 297 1013 300 q 870 310 906 294 q 811 354 835 326 q 780 498 761 415 q 817 574 787 533 l 583 574 q 668 484 635 552 q 700 298 700 417 q 646 100 700 191 q 494 0 587 0 q 324 135 383 0 q 263 36 304 72 q 159 0 222 0 q 49 43 96 0 q 2 179 2 85 q 47 318 2 272 q 170 367 93 363 q 330 230 283 372 q 407 115 357 150 q 493 91 435 93 q 586 123 550 89 q 639 206 622 157 q 656 312 656 256 q 644 420 656 369 q 596 513 631 472 q 525 554 561 554 q 477 565 489 554 q 465 589 465 576 q 474 612 465 602 q 500 622 483 622 l 941 622 m 936 362 q 956 363 936 362 q 1010 389 976 363 q 1044 464 1044 415 q 1010 543 1044 513 q 936 574 976 572 q 863 549 896 576 q 830 467 830 522 q 863 386 830 411 q 936 362 896 361 m 56 208 q 55 187 56 208 q 81 128 54 165 q 159 91 107 91 q 248 120 211 91 q 285 204 285 150 q 252 292 285 257 q 167 326 219 326 q 86 289 115 326 q 56 208 57 252 z "},"ఽ":{"ha":1074,"x_min":6,"x_max":994,"o":"m 91 106 q 128 69 91 80 l 994 69 l 994 -2 l 163 -2 q 22 50 69 -2 q 6 95 6 69 q 22 142 6 122 q 63 174 39 161 q 156 196 109 196 q 243 193 202 196 q 322 187 283 189 q 537 254 485 180 q 557 309 557 281 q 519 400 557 365 q 431 453 481 435 q 321 472 380 470 q 226 467 263 474 q 300 385 280 457 q 306 363 306 370 q 263 281 306 313 q 163 248 220 248 q 65 283 106 248 q 24 367 24 319 q 55 444 24 415 q 130 493 85 474 q 302 528 215 528 q 498 474 404 528 q 575 405 544 446 q 606 309 606 363 q 520 172 606 224 q 222 131 430 117 q 120 135 169 135 q 99 126 107 135 q 91 106 91 117 m 91 380 q 118 326 91 344 q 176 307 144 307 q 232 327 207 307 q 257 380 257 346 q 231 432 257 413 q 174 452 206 452 q 117 433 143 452 q 91 380 91 415 z "},"ా":{"ha":444,"x_min":-711,"x_max":317,"o":"m 317 455 q 317 408 317 455 q 268 319 317 361 q 154 278 219 278 q 53 314 89 278 q 4 398 17 350 q -2 494 -9 446 q 31 565 6 541 l -661 565 q -698 578 -685 565 q -711 606 -711 591 q -699 635 -711 622 q -661 648 -687 648 l 113 648 q 262 598 207 648 q 317 455 317 548 m 146 565 q 70 525 100 565 q 48 437 41 485 q 93 367 56 391 q 163 351 119 350 q 233 384 207 352 q 256 469 259 417 q 191 556 246 530 q 146 565 170 565 z "},"ి":{"ha":4,"x_min":-776,"x_max":-409,"o":"m -472 604 q -607 552 -520 556 q -757 585 -691 548 q -772 602 -769 591 q -770 622 -776 613 q -709 620 -757 641 q -563 606 -633 587 q -474 678 -502 622 q -470 791 -446 735 q -509 839 -483 819 q -509 733 -476 798 q -553 686 -524 706 q -621 666 -581 667 q -697 692 -661 665 q -733 767 -733 719 q -656 907 -731 859 q -564 927 -615 933 q -476 891 -513 920 q -409 752 -409 841 q -472 604 -409 663 m -537 809 q -559 854 -535 839 q -594 863 -574 865 q -631 848 -615 861 q -658 819 -648 835 q -672 787 -669 804 q -652 726 -681 746 q -576 730 -619 698 q -537 809 -537 756 z "},"ీ":{"ha":4,"x_min":-776,"x_max":-409,"o":"m -472 604 q -607 552 -520 556 q -757 585 -691 548 q -772 602 -769 591 q -770 622 -776 613 q -709 620 -757 641 q -563 606 -633 587 q -474 678 -502 622 q -470 791 -446 735 q -509 839 -483 819 q -509 733 -476 798 q -553 686 -524 706 q -621 666 -581 667 q -697 692 -661 665 q -733 767 -733 719 q -656 907 -731 859 q -564 927 -615 933 q -476 891 -513 920 q -409 752 -409 841 q -472 604 -409 663 m -537 809 q -559 854 -535 839 q -594 863 -574 865 q -631 848 -615 861 q -658 819 -648 835 q -672 787 -669 804 q -652 726 -681 746 q -576 730 -619 698 q -537 809 -537 756 m -550 922 q -581 919 -565 919 q -606 924 -596 919 q -616 938 -607 928 q -633 963 -624 948 q -654 1047 -654 1000 q -620 1131 -654 1094 q -538 1169 -587 1169 q -456 1137 -489 1169 q -420 1059 -424 1106 q -446 1028 -417 1033 q -473 1044 -472 1026 q -487 1081 -474 1061 q -534 1104 -500 1102 q -584 1086 -569 1106 q -601 1045 -600 1067 q -594 1002 -602 1024 q -550 922 -585 976 z "},"ు":{"ha":380,"x_min":-143,"x_max":270,"o":"m 56 0 q -35 25 2 0 q -96 87 -72 50 q -143 257 -143 163 q -126 280 -143 280 q -113 272 -113 280 q -65 152 -113 202 q 54 100 -17 100 q 181 167 137 100 q 222 306 222 230 q 189 446 222 381 q 96 546 156 511 q 2 569 56 569 q -17 579 -9 569 q -22 600 -24 589 q 7 631 -20 631 q 206 517 133 631 q 270 287 270 420 q 219 93 270 172 q 56 0 159 0 z "},"ూ":{"ha":811,"x_min":-154,"x_max":700,"o":"m 3 552 q -13 552 3 552 q -30 591 -30 552 q 4 630 -30 630 l 517 630 q 650 576 600 630 q 700 444 700 522 q 655 312 700 367 q 533 257 609 257 q 415 326 463 257 q 394 511 352 413 q 415 552 406 535 l 176 552 q 267 291 267 452 q 209 90 267 180 q 44 0 152 0 q -98 85 -46 0 q -148 250 -144 159 q -133 278 -154 278 q -113 257 -117 278 q 48 100 -87 100 q 178 163 133 100 q 217 301 217 219 q 176 456 217 383 q 61 548 133 541 q 3 552 35 552 m 650 438 q 650 464 650 438 q 619 521 650 491 q 536 552 587 552 q 455 519 485 552 q 424 438 424 485 q 459 363 424 391 q 540 335 494 335 q 618 360 585 335 q 650 438 650 385 z "},"ృ":{"ha":294,"x_min":-269,"x_max":215,"o":"m -65 -257 q -10 -229 -33 -254 q 9 -169 13 -204 q -22 -116 6 -133 q -84 -101 -50 -98 q -141 -128 -119 -104 q -159 -188 -163 -152 q -126 -243 -156 -224 q -65 -257 -96 -261 m -6 552 q 144 348 87 496 q 202 93 193 224 q 151 -245 215 -115 q -52 -389 87 -376 q -168 -369 -119 -394 q -243 -303 -217 -344 q -268 -212 -269 -261 q -242 -131 -267 -163 q -194 -86 -217 -100 q -148 -65 -172 -72 q 15 -89 -50 -35 q 53 -168 48 -117 q 23 -256 57 -219 q -64 -299 -11 -294 q -156 -270 -117 -304 q -196 -196 -194 -237 q -183 -133 -196 -157 q -219 -194 -215 -157 q -204 -266 -222 -231 q -147 -323 -185 -300 q -44 -340 -109 -346 q 65 -289 20 -333 q 133 -181 109 -244 q 144 200 196 -17 q -37 485 94 409 q -56 509 -54 494 q -53 536 -59 524 q -33 555 -46 548 q -6 552 -20 561 z "},"ౄ":{"ha":493,"x_min":-269,"x_max":428,"o":"m -65 -257 q -10 -229 -33 -254 q 9 -169 13 -204 q -22 -116 6 -133 q -84 -101 -50 -98 q -141 -128 -119 -104 q -159 -188 -163 -152 q -126 -243 -156 -224 q -65 -257 -96 -261 m -6 552 q 144 348 87 496 q 202 93 193 224 q 151 -245 215 -115 q -52 -389 87 -376 q -168 -369 -119 -394 q -243 -303 -217 -344 q -268 -212 -269 -261 q -242 -131 -267 -163 q -194 -86 -217 -100 q -148 -65 -172 -72 q 15 -89 -50 -35 q 53 -168 48 -117 q 23 -256 57 -219 q -64 -299 -11 -294 q -156 -270 -117 -304 q -196 -196 -194 -237 q -183 -133 -196 -157 q -219 -194 -215 -157 q -204 -266 -222 -231 q -147 -323 -185 -300 q -44 -340 -109 -346 q 65 -289 20 -333 q 133 -181 109 -244 q 144 200 196 -17 q -37 485 94 409 q -56 509 -54 494 q -53 536 -59 524 q -33 555 -46 548 q -6 552 -20 561 m 287 557 q 392 519 356 557 q 427 425 428 481 q 394 342 426 369 q 323 315 361 315 q 258 331 285 315 q 219 374 231 348 q 235 493 191 437 l 107 493 q -22 491 39 493 q -45 504 -37 493 q -54 527 -54 515 q -46 548 -54 539 q -22 557 -39 557 l 287 557 m 323 363 q 337 363 323 363 q 370 381 350 363 q 391 430 391 400 q 368 479 391 459 q 317 498 344 498 q 270 479 289 498 q 251 427 252 459 q 273 379 250 394 q 323 363 296 363 z "},"ె":{"ha":4,"x_min":-715,"x_max":-163,"o":"m -676 767 q -715 806 -715 767 q -676 850 -715 846 l -337 850 l -309 852 q -189 800 -237 857 q -163 686 -163 767 q -199 574 -163 606 q -296 543 -235 543 l -428 543 q -452 552 -444 543 q -459 572 -459 561 q -452 593 -459 583 q -430 602 -444 602 l -298 602 q -234 629 -248 602 q -220 687 -220 656 q -238 743 -220 719 q -298 767 -256 767 l -676 767 z "},"ే":{"ha":4,"x_min":-715,"x_max":-146,"o":"m -676 767 q -715 806 -715 767 q -676 850 -715 846 l -337 850 l -309 852 q -189 800 -237 857 q -163 686 -163 767 q -199 574 -163 606 q -296 543 -235 543 l -428 543 q -452 552 -444 543 q -459 572 -459 561 q -452 593 -459 583 q -430 602 -444 602 l -298 602 q -234 629 -248 602 q -220 687 -220 656 q -238 743 -220 719 q -298 767 -256 767 l -676 767 m -324 967 q -276 841 -324 913 q -335 839 -315 831 q -344 853 -337 843 q -359 880 -352 863 q -381 968 -381 922 q -346 1049 -380 1013 q -264 1085 -313 1085 q -183 1054 -215 1085 q -148 976 -152 1022 q -155 954 -146 961 q -174 946 -163 946 q -191 951 -185 946 q -199 962 -196 956 q -204 978 -202 969 q -254 1020 -213 1017 q -309 1006 -294 1024 q -324 967 -324 989 z "},"ై":{"ha":9,"x_min":-943,"x_max":-163,"o":"m -676 767 q -715 806 -715 767 q -676 850 -715 846 l -337 850 l -309 852 q -189 800 -237 857 q -163 686 -163 767 q -199 574 -163 606 q -296 543 -235 543 l -428 543 q -452 552 -444 543 q -459 572 -459 561 q -452 593 -459 583 q -430 602 -444 602 l -298 602 q -234 629 -248 602 q -220 687 -220 656 q -238 743 -220 719 q -298 767 -256 767 l -676 767 m -838 -98 q -806 -94 -838 -98 q -745 -124 -774 -91 q -717 -203 -717 -157 q -739 -270 -717 -248 l -222 -270 q -200 -280 -207 -270 q -193 -299 -193 -289 q -200 -319 -193 -309 q -222 -328 -207 -328 l -817 -328 q -871 -313 -844 -328 q -913 -272 -898 -298 q -922 -172 -943 -228 q -838 -98 -902 -106 m -756 -217 q -755 -202 -756 -217 q -773 -168 -754 -187 q -821 -151 -793 -148 q -865 -171 -850 -154 q -881 -211 -880 -189 q -869 -252 -881 -233 q -828 -272 -856 -270 q -779 -260 -800 -274 q -756 -217 -757 -246 z "},"ొ":{"ha":341,"x_min":-572,"x_max":252,"o":"m -383 620 q -356 598 -356 620 q -383 576 -356 576 q -485 604 -446 576 q -544 767 -572 667 q -482 851 -531 813 q -369 889 -433 889 q -257 858 -304 889 q -194 778 -211 828 q 30 896 -139 896 q 130 883 93 896 q 252 700 252 835 q 207 578 252 630 q 91 522 159 522 q -19 566 22 522 q -67 672 -61 609 q -35 813 -80 750 q -181 670 -181 787 q -199 656 -181 656 q -217 670 -217 656 q -256 768 -217 733 q -346 802 -296 802 q -438 779 -396 802 q -487 715 -480 756 q -463 649 -491 678 q -383 620 -435 620 m 197 714 q 198 735 197 714 q 168 787 198 756 q 82 819 137 819 q 0 786 28 819 q -28 703 -28 754 q 8 627 -28 652 q 94 602 44 602 q 169 637 143 602 q 197 714 196 672 z "},"ో":{"ha":341,"x_min":-572,"x_max":281,"o":"m 143 878 q 63 896 69 891 q 30 1013 30 963 q 67 1102 30 1063 q 155 1141 104 1141 q 241 1107 206 1141 q 280 1024 276 1074 q 272 1000 281 1007 q 251 993 263 993 q 232 997 239 993 q 223 1010 226 1002 q 219 1027 220 1019 q 213 1041 217 1035 q 156 1075 193 1074 q 105 1056 120 1076 q 90 1006 89 1035 q 100 950 91 978 q 143 878 120 887 m -383 620 q -356 598 -356 620 q -383 576 -356 576 q -485 604 -446 576 q -544 767 -572 667 q -482 851 -531 813 q -369 889 -433 889 q -257 858 -304 889 q -194 778 -211 828 q 30 896 -139 896 q 130 883 93 896 q 252 700 252 835 q 207 578 252 630 q 91 522 159 522 q -19 566 22 522 q -67 672 -61 609 q -35 813 -80 750 q -181 670 -181 787 q -199 656 -181 656 q -217 670 -217 656 q -256 768 -217 733 q -346 802 -296 802 q -438 779 -396 802 q -487 715 -480 756 q -463 649 -491 678 q -383 620 -435 620 m 197 714 q 198 735 197 714 q 168 787 198 756 q 82 819 137 819 q 0 786 28 819 q -28 703 -28 754 q 8 627 -28 652 q 94 602 44 602 q 169 637 143 602 q 197 714 196 672 z "},"ౌ":{"ha":444,"x_min":-696,"x_max":326,"o":"m -509 576 q -531 603 -531 576 q -509 630 -531 630 l -315 630 q -231 685 -231 630 q -248 731 -231 713 q -293 748 -265 748 l -659 748 q -686 761 -676 748 q -696 790 -696 774 q -687 819 -696 806 q -659 831 -678 831 l 143 831 q 307 722 261 831 q 321 623 326 680 q 278 519 317 567 q 165 469 239 470 q 76 490 115 467 q 19 561 37 513 q 4 641 2 596 q 37 748 9 717 l -200 748 q -181 694 -185 724 q -188 637 -178 663 q -221 594 -198 611 q -278 576 -244 576 l -509 576 m 163 763 q 136 763 163 763 q 81 727 109 763 q 52 640 52 691 q 91 562 52 589 q 165 535 130 535 q 254 574 226 535 q 278 656 281 613 q 245 731 274 698 q 163 763 217 763 z "},"్":{"ha":4,"x_min":-493,"x_max":37,"o":"m -6 939 q 27 926 17 939 q 37 898 37 913 q 26 870 37 883 q -7 857 15 857 l -376 857 q -414 843 -402 857 q -428 808 -426 828 q -416 770 -430 789 q -376 752 -402 752 l -174 752 q -146 742 -156 752 q -137 719 -137 731 q -146 697 -137 707 q -174 687 -156 687 l -361 687 q -398 667 -387 687 q -393 620 -409 646 q -330 580 -376 594 q -307 552 -306 572 q -337 531 -311 531 q -463 583 -424 531 q -472 660 -487 619 q -417 713 -457 702 q -479 758 -465 722 q -493 815 -493 794 q -487 855 -493 835 q -469 893 -481 874 q -376 939 -437 939 l -6 939 z "},"ౕ":{"ha":454,"x_min":44,"x_max":339,"o":"m 96 559 q 44 678 44 607 q 56 726 44 706 q 196 804 100 804 q 339 693 291 804 l 272 665 q 199 724 233 724 q 144 707 165 724 q 122 665 122 691 q 176 567 122 615 l 96 559 z "},"ౖ":{"ha":4,"x_min":-904,"x_max":-307,"o":"m -787 -135 q -695 -163 -726 -128 q -665 -247 -665 -198 q -689 -320 -665 -296 l -339 -320 q -316 -330 -324 -320 q -307 -350 -307 -339 q -316 -371 -307 -361 q -339 -381 -324 -381 l -772 -381 q -830 -366 -800 -381 q -876 -322 -859 -350 q -885 -215 -904 -270 q -851 -161 -876 -183 q -787 -135 -826 -139 m -705 -262 q -704 -246 -705 -262 q -725 -209 -704 -230 q -777 -192 -746 -189 q -823 -213 -807 -194 q -840 -256 -839 -231 q -827 -300 -841 -280 q -782 -322 -813 -320 q -729 -309 -752 -324 q -705 -262 -706 -294 z "},"ౘ":{"ha":872,"x_min":-2,"x_max":798,"o":"m 31 807 q 8 817 17 807 q -1 836 0 826 q 6 856 -2 846 q 31 865 13 865 l 424 865 q 417 974 391 917 q 451 1014 428 998 q 515 1030 474 1030 q 583 999 556 1030 q 611 924 611 969 q 580 844 611 880 q 483 807 548 807 l 31 807 m 507 978 q 460 960 476 978 q 444 920 444 943 q 458 879 443 898 q 505 859 474 859 q 551 879 535 859 q 569 920 567 898 q 554 960 569 943 q 507 978 539 978 m 489 604 q 432 580 465 580 q 378 586 400 580 q 333 604 356 593 q 246 700 250 646 q 254 735 244 720 q 300 756 269 763 q 367 693 346 746 q 381 659 374 674 q 414 624 393 624 q 483 674 435 624 l 704 894 q 720 909 711 900 q 741 924 730 919 q 764 930 752 930 q 785 920 776 930 q 791 893 798 913 q 757 852 776 863 l 489 604 m 546 0 q 372 111 424 0 q 321 31 363 61 q 228 0 280 0 q 103 52 152 0 q 54 176 54 104 q 172 359 54 278 l 28 370 q -2 416 -2 374 q 37 457 -2 457 q 243 411 41 457 q 265 385 263 406 q 241 354 267 365 q 155 305 180 326 q 119 248 130 283 q 115 180 107 213 q 151 123 122 146 q 232 100 180 100 q 321 138 285 100 q 357 233 357 176 q 378 255 357 254 q 398 230 398 256 q 411 180 398 204 q 444 137 424 156 q 539 100 489 100 q 617 120 589 100 q 661 172 644 141 q 693 313 693 231 q 619 507 693 435 q 426 580 546 580 q 396 602 396 580 q 444 630 396 630 q 726 422 657 622 q 739 193 767 309 q 694 89 726 135 q 546 0 631 0 z "},"ౙ":{"ha":798,"x_min":2,"x_max":719,"o":"m 56 683 q 31 692 39 683 q 24 711 24 700 q 31 731 24 722 q 56 741 39 741 l 450 741 q 431 796 433 767 q 442 849 430 826 q 477 889 454 872 q 541 906 500 906 q 608 874 581 906 q 636 798 635 843 q 606 719 637 754 q 509 683 574 683 l 56 683 m 594 795 q 594 806 594 795 q 580 835 594 817 q 533 854 565 854 q 486 835 502 854 q 469 795 470 817 q 483 754 469 774 q 530 733 498 733 q 577 754 561 733 q 594 795 593 774 m 550 591 q 522 619 522 591 q 546 648 522 648 q 687 574 646 648 q 710 485 707 533 q 687 396 713 437 q 522 315 630 315 q 359 419 415 315 q 280 343 337 363 q 184 319 256 331 q 86 270 113 307 q 64 193 59 233 q 101 121 69 152 q 192 91 133 91 q 304 144 250 91 q 357 259 357 198 q 375 280 357 280 q 393 259 393 280 q 441 142 393 193 q 555 91 489 91 q 646 130 620 91 q 661 175 661 146 q 641 217 661 204 q 627 251 619 230 q 654 275 635 272 q 685 267 672 278 q 707 241 698 256 q 719 170 719 217 q 665 50 719 100 q 544 -2 613 -2 q 427 46 476 -2 q 372 163 378 94 q 305 44 357 91 q 178 -2 252 -2 q 53 55 104 -2 q 2 194 2 111 q 113 352 2 306 q 176 370 144 365 q 259 391 233 378 q 313 474 313 415 q 281 544 313 513 q 206 574 248 574 q 130 541 167 574 q 93 469 93 506 q 81 438 93 448 q 56 428 69 428 q 32 438 44 428 q 20 469 20 448 q 70 590 20 544 q 196 635 120 635 q 285 610 243 635 q 344 556 328 585 q 365 513 359 528 q 374 485 370 498 q 456 396 394 426 q 531 383 483 383 q 613 415 578 383 q 656 485 648 446 q 637 556 663 524 q 550 591 611 589 z "},"ౠ":{"ha":2024,"x_min":2,"x_max":1944,"o":"m 1944 456 q 1944 410 1944 456 q 1894 321 1944 363 q 1781 280 1844 280 q 1680 316 1717 280 q 1630 399 1643 352 q 1625 495 1617 446 q 1659 567 1633 544 l 1263 567 q 1229 580 1241 567 q 1217 608 1217 593 q 1229 637 1217 624 q 1263 650 1241 650 l 1741 650 q 1890 600 1835 650 q 1944 456 1944 550 m 1774 567 q 1750 567 1774 567 q 1697 526 1726 567 q 1676 439 1669 485 q 1719 369 1680 396 q 1788 353 1741 352 q 1861 386 1835 354 q 1883 470 1887 419 q 1861 524 1883 500 q 1774 567 1822 567 m 1289 -2 q 1181 49 1230 -2 q 1109 165 1131 100 q 1034 48 1085 94 q 917 2 983 2 q 772 85 826 2 q 720 254 720 157 q 734 278 720 278 q 752 261 748 278 q 798 147 756 193 q 919 102 841 102 q 1040 162 998 102 q 1081 316 1081 222 q 1023 488 1081 409 q 872 567 965 567 q 837 600 837 567 q 863 633 837 633 q 1002 585 939 633 q 1130 287 1130 491 l 1130 272 q 1185 156 1141 200 q 1302 102 1233 102 q 1456 307 1456 102 q 1343 544 1456 474 q 1280 565 1317 563 q 1219 604 1219 569 q 1250 633 1219 633 q 1380 587 1317 633 q 1509 287 1509 483 q 1456 93 1509 181 q 1289 -2 1393 -2 m 552 0 q 441 47 493 0 q 383 152 389 94 q 317 44 378 85 q 184 0 256 0 q 57 53 113 0 q 2 183 2 106 q 111 356 2 306 q 235 385 148 374 q 295 417 272 389 q 319 486 319 444 q 288 555 319 528 q 212 581 257 581 q 131 547 167 581 q 94 473 94 513 q 56 433 94 433 q 20 474 20 433 q 71 592 20 546 q 196 637 122 637 q 319 593 270 637 q 374 476 374 550 q 219 331 374 350 q 65 213 65 311 q 191 94 65 94 q 301 137 252 94 q 361 243 350 180 q 383 269 367 269 q 400 243 396 269 q 450 143 407 183 q 550 94 494 94 q 670 170 624 94 q 704 323 704 233 q 646 489 704 413 q 552 556 606 544 q 487 577 496 570 q 478 606 478 583 q 512 635 478 635 q 569 628 546 635 q 754 296 754 557 q 707 104 754 189 q 552 0 652 0 z "},"ౡ":{"ha":1170,"x_min":2,"x_max":1091,"o":"m 1023 238 q 1023 258 1023 238 q 999 303 1022 278 q 933 328 976 328 q 865 302 891 328 q 839 237 839 276 q 868 175 839 198 q 933 152 896 152 q 997 175 970 152 q 1023 238 1024 198 m 567 452 q 544 383 567 411 q 485 335 520 356 q 409 295 450 315 q 338 245 369 276 q 303 178 307 215 q 314 109 298 141 q 362 56 330 78 q 441 33 394 33 q 601 79 550 33 q 664 180 652 124 q 660 281 676 235 q 619 326 644 326 q 594 338 602 326 q 585 365 585 350 q 594 393 585 380 q 619 406 602 406 l 896 406 q 1038 360 985 407 q 1091 236 1091 313 q 1045 117 1091 159 q 931 74 1000 74 q 820 120 861 74 q 787 235 780 167 q 824 328 794 281 l 693 328 q 738 208 730 276 q 718 81 746 141 q 623 -21 689 20 q 465 -63 557 -63 q 323 -29 372 -63 q 252 57 274 6 q 241 167 230 109 q 352 307 257 261 q 478 384 446 352 q 509 458 509 417 q 480 531 509 500 q 398 561 450 561 q 314 527 346 561 q 278 452 281 493 q 256 437 274 437 q 234 468 243 437 q 206 531 226 498 q 141 565 185 565 q 61 469 61 565 q 65 437 61 452 q 44 422 69 422 q 2 498 2 422 q 39 595 2 552 q 130 639 76 639 q 261 531 222 639 q 389 633 309 633 q 526 578 480 633 q 567 452 567 531 z "},"ౢ":{"ha":7,"x_min":-583,"x_max":-161,"o":"m -356 -61 q -331 -61 -356 -61 q -282 -93 -306 -61 q -259 -156 -259 -124 q -273 -205 -259 -189 q -306 -231 -287 -220 q -350 -255 -326 -243 q -392 -284 -374 -267 q -411 -322 -409 -302 q -405 -360 -413 -343 q -377 -391 -396 -378 q -331 -404 -357 -404 q -234 -379 -267 -404 q -193 -321 -202 -354 q -193 -261 -183 -289 q -222 -228 -202 -233 q -242 -206 -243 -222 q -222 -193 -241 -191 q -179 -236 -196 -194 q -167 -328 -161 -278 q -208 -419 -172 -378 q -328 -459 -244 -459 q -399 -440 -370 -459 q -440 -391 -428 -420 q -446 -328 -452 -361 q -422 -276 -441 -294 q -382 -248 -404 -257 q -341 -228 -361 -239 q -293 -159 -293 -200 q -309 -119 -293 -137 q -356 -102 -326 -102 q -404 -122 -385 -102 q -424 -158 -422 -143 q -437 -174 -426 -174 q -450 -156 -444 -174 q -467 -119 -456 -137 q -504 -100 -478 -100 q -550 -156 -550 -100 q -547 -173 -550 -165 q -559 -181 -544 -181 q -583 -144 -583 -181 q -562 -81 -583 -106 q -509 -57 -541 -57 q -433 -119 -456 -57 q -356 -61 -407 -61 z "},"ౣ":{"ha":139,"x_min":-576,"x_max":72,"o":"m 33 -302 q -22 -248 26 -248 q -61 -264 -46 -248 q -76 -302 -76 -280 q -60 -338 -76 -324 q -22 -352 -44 -352 q 17 -338 0 -352 q 33 -302 33 -324 m -346 -65 q -263 -98 -287 -65 q -239 -165 -239 -131 q -253 -214 -239 -198 q -288 -242 -267 -230 q -332 -266 -309 -254 q -375 -296 -356 -278 q -397 -336 -394 -315 q -391 -378 -400 -357 q -309 -422 -369 -422 q -219 -395 -250 -422 q -181 -336 -187 -369 q -184 -276 -174 -304 q -206 -248 -194 -248 q -223 -241 -217 -248 q -230 -225 -230 -233 q -223 -209 -230 -217 q -207 -202 -217 -202 l -43 -200 q 42 -228 11 -200 q 72 -302 72 -256 q 45 -373 72 -348 q -23 -398 19 -398 q -89 -370 -65 -398 q -87 -248 -131 -322 l -165 -248 q -138 -319 -143 -278 q -150 -395 -133 -359 q -206 -456 -167 -431 q -299 -480 -244 -480 q -384 -459 -354 -480 q -427 -409 -415 -439 q -434 -344 -439 -380 q -410 -290 -430 -309 q -369 -260 -391 -270 q -326 -238 -346 -250 q -289 -210 -306 -226 q -272 -169 -272 -194 q -291 -127 -272 -144 q -340 -109 -309 -109 q -390 -130 -370 -109 q -410 -167 -409 -150 q -426 -183 -411 -183 q -438 -164 -431 -183 q -456 -125 -444 -144 q -493 -106 -467 -106 q -541 -165 -541 -106 q -538 -182 -541 -174 q -550 -191 -535 -191 q -576 -152 -576 -191 q -555 -88 -576 -113 q -500 -63 -533 -63 q -422 -128 -443 -63 q -346 -65 -393 -65 z "},"౦":{"ha":663,"x_min":2,"x_max":583,"o":"m 83 94 q 43 140 83 94 q 2 319 2 187 q 83 533 2 450 q 297 622 167 622 q 509 526 428 622 q 583 299 583 435 q 504 81 583 163 q 294 0 424 0 q 83 94 165 0 m 522 336 q 522 388 522 336 q 459 502 522 441 q 292 563 396 563 q 124 502 187 563 q 61 333 61 441 q 126 167 61 233 q 287 94 193 94 q 454 163 385 94 q 522 336 522 231 z "},"౧":{"ha":643,"x_min":0,"x_max":570,"o":"m 502 -4 q 454 33 459 -4 q 456 63 452 48 q 468 109 461 78 q 481 220 474 141 q 475 375 489 300 q 415 503 461 450 q 278 556 369 556 q 111 456 161 556 q 87 137 57 350 q 102 54 94 83 q 98 12 109 24 q 71 -2 87 0 q 40 4 56 -4 q 16 40 24 11 q 4 131 7 69 q 6 260 0 193 q 31 394 13 328 q 81 515 50 461 q 280 633 156 633 q 472 528 400 633 q 554 298 533 441 q 556 74 570 189 q 502 -4 546 -4 z "},"౨":{"ha":1022,"x_min":0,"x_max":943,"o":"m 613 72 q 809 141 733 72 q 883 309 883 207 q 850 442 883 389 q 769 526 817 494 q 559 574 678 583 q 617 526 602 563 q 631 470 631 493 q 590 388 631 420 q 491 356 548 356 q 392 390 433 356 q 350 481 350 424 q 394 575 350 537 q 503 627 437 613 q 645 629 569 641 q 789 578 722 617 q 899 472 856 539 q 943 307 943 406 q 874 107 943 189 q 617 0 783 0 l 0 0 l 0 72 l 613 72 m 500 559 q 443 540 469 559 q 417 486 417 520 q 444 433 417 452 q 502 415 470 415 q 558 433 533 415 q 583 486 583 452 q 557 540 583 520 q 500 559 531 559 z "},"౩":{"ha":509,"x_min":-2,"x_max":430,"o":"m 185 372 q 306 489 306 376 q 276 560 306 533 q 198 587 246 587 q 114 560 150 587 q 67 476 78 533 l 6 485 q 200 652 37 652 q 381 556 328 652 q 400 483 400 526 q 371 404 400 441 q 298 357 343 367 q 392 302 354 341 q 430 209 430 263 q 411 119 430 156 q 361 56 393 81 q 206 -2 294 -2 q 63 46 119 -2 q -2 178 7 94 l 52 185 q 106 92 63 120 q 205 63 150 63 q 296 102 259 63 q 333 190 333 141 q 319 263 333 239 q 281 302 304 287 q 185 326 235 330 l 185 372 z "},"౪":{"ha":530,"x_min":2,"x_max":450,"o":"m 398 641 q 443 600 433 641 q 446 510 450 563 q 419 411 443 457 q 224 296 361 296 q 95 334 143 296 q 26 425 48 372 q 4 533 4 478 q 33 637 2 624 q 78 633 57 646 q 81 606 87 628 q 66 537 74 583 q 67 444 57 491 q 222 337 89 337 q 378 435 348 337 q 369 591 398 504 q 363 604 369 591 q 369 633 357 626 q 398 641 380 641 m 226 333 q 347 287 304 333 q 391 165 391 241 q 344 44 391 89 q 220 0 296 0 q 100 52 148 0 q 54 169 54 102 q 101 284 54 235 q 226 333 148 333 m 219 57 q 246 57 219 57 q 308 91 272 57 q 344 179 344 124 q 311 265 344 233 q 222 296 278 296 q 133 264 167 296 q 100 181 100 231 q 133 94 100 130 q 219 57 167 57 z "},"౫":{"ha":776,"x_min":4,"x_max":696,"o":"m 4 637 q 237 552 141 633 q 352 309 352 457 q 332 209 352 263 q 270 109 313 156 q 4 2 174 2 l 4 76 q 207 143 126 76 q 291 311 291 209 q 193 515 291 439 q 4 576 117 572 l 4 637 m 589 541 q 563 615 591 591 q 508 636 535 639 q 465 621 481 633 q 441 589 448 609 q 474 496 426 541 q 511 469 481 483 q 561 446 561 443 q 581 491 572 463 q 589 541 589 519 m 506 691 q 534 691 506 691 q 601 650 563 691 q 639 545 639 609 q 596 415 639 481 q 664 363 631 398 q 696 273 696 328 q 681 181 696 219 q 637 115 665 143 q 493 52 574 52 q 483 56 489 52 q 477 69 478 61 q 479 81 476 76 q 496 91 481 87 q 602 150 557 104 q 646 256 646 196 q 624 342 646 315 q 576 387 602 369 q 365 133 533 244 q 226 56 294 85 q 102 19 106 2 q 114 51 98 33 q 139 74 130 69 q 355 195 291 148 q 460 291 419 243 q 535 406 502 339 q 427 480 469 433 q 385 574 385 526 q 417 656 385 622 q 506 691 448 691 z "},"౬":{"ha":715,"x_min":2,"x_max":635,"o":"m 596 102 q 625 92 615 102 q 635 47 635 81 q 625 5 635 13 q 596 -4 615 -4 l 157 -4 q 52 50 98 -4 q 2 181 2 107 q 28 297 2 254 q 93 359 54 341 q 55 409 72 381 q 37 472 37 437 q 48 536 37 507 q 78 587 59 565 q 165 635 115 635 l 339 635 q 361 608 361 635 q 356 577 361 581 q 339 572 352 572 l 157 572 q 109 543 135 572 q 83 475 83 513 q 110 411 83 437 q 165 385 137 385 l 441 385 q 462 379 456 385 q 469 348 469 372 q 462 318 469 324 q 441 311 456 311 l 156 311 q 89 281 120 311 q 57 207 57 250 q 86 133 57 165 q 144 102 115 102 l 596 102 z "},"౭":{"ha":563,"x_min":0,"x_max":483,"o":"m 483 191 q 411 48 483 102 q 254 0 346 0 q 65 70 131 0 q 0 219 0 137 q 126 389 0 343 q 208 403 169 406 q 280 400 248 400 q 341 407 311 400 q 411 483 411 430 q 363 556 411 533 q 261 576 315 576 q 164 553 207 576 q 111 480 120 530 q 96 467 109 470 q 70 465 83 463 q 41 494 35 470 q 120 595 63 561 q 256 630 178 630 q 394 593 335 630 q 465 474 467 550 q 304 354 459 354 l 231 354 q 125 336 167 356 q 65 288 83 317 q 50 225 46 259 q 78 163 54 191 q 261 93 139 93 q 374 119 322 93 q 437 231 437 154 q 448 250 437 244 q 478 231 469 259 q 483 191 483 215 z "},"౮":{"ha":731,"x_min":-7,"x_max":652,"o":"m 633 561 l 472 561 l 472 633 l 633 633 q 645 624 639 633 q 652 598 652 615 q 644 571 652 581 q 633 561 637 561 m 472 633 q 526 561 517 633 q 534 394 535 489 q 509 209 533 298 q 431 58 485 120 q 280 -4 378 -4 q 81 115 156 -4 q 7 370 22 215 q 20 604 -7 513 q 40 626 24 617 q 71 633 56 635 q 98 619 87 631 q 100 568 109 607 q 80 442 91 528 q 81 274 69 356 q 136 134 93 193 q 274 76 180 76 q 409 128 369 76 q 459 256 450 180 q 456 411 469 331 q 433 544 444 491 q 437 622 411 598 q 472 633 446 633 z "},"౯":{"ha":715,"x_min":2,"x_max":635,"o":"m 93 272 q 28 333 54 289 q 2 431 2 378 q 16 520 2 485 q 52 581 30 556 q 157 635 100 635 l 596 635 q 625 625 615 635 q 635 581 635 615 q 625 539 635 548 q 596 530 615 530 l 144 530 q 86 497 115 530 q 57 423 57 465 q 89 349 57 381 q 156 317 120 317 l 441 317 q 462 312 456 317 q 469 281 469 307 q 462 251 469 256 q 441 246 456 246 l 165 246 q 110 219 137 246 q 83 154 83 193 q 109 87 83 115 q 157 59 135 59 l 339 59 q 356 54 352 59 q 361 28 361 48 q 356 2 361 7 q 339 -4 352 -4 l 165 -4 q 77 43 117 -4 q 37 150 37 89 q 93 272 37 211 z "},"౸":{"ha":769,"x_min":2,"x_max":689,"o":"m 583 300 q 504 81 583 163 q 287 0 424 0 q 81 96 165 0 q 2 319 2 187 q 85 536 2 450 q 298 622 169 622 q 507 526 428 622 q 583 300 583 437 m 522 336 q 522 388 522 336 q 459 502 522 441 q 292 563 396 563 q 124 502 187 563 q 61 333 61 441 q 126 167 61 233 q 287 94 193 94 q 454 163 385 94 q 522 336 522 231 m 580 -122 l 389 -206 l 359 -146 l 557 -61 q 594 -21 589 -48 q 588 31 600 6 q 551 69 576 56 q 498 67 526 81 q 407 39 467 50 l 393 74 l 498 117 q 593 115 550 139 q 662 43 635 91 q 662 -53 689 -6 q 580 -122 635 -100 z "},"౹":{"ha":213,"x_min":50,"x_max":133,"o":"m 50 665 l 133 672 l 133 7 l 50 -2 l 50 665 z "},"౺":{"ha":554,"x_min":-9,"x_max":474,"o":"m 357 -74 l 276 -74 q 289 27 276 -56 q 313 194 302 109 q 194 119 237 131 q 117 106 152 106 q 56 125 81 106 q 17 178 30 144 q 4 344 -9 243 l 48 631 l 135 631 l 91 344 q 139 196 70 217 q 181 189 159 189 q 224 196 204 189 q 263 215 244 204 q 317 261 291 235 l 387 631 l 474 631 l 357 -74 z "},"౻":{"ha":856,"x_min":-9,"x_max":776,"o":"m 422 106 q 313 194 343 106 q 194 119 237 131 q 116 106 150 106 q 56 125 81 106 q 17 178 30 144 q 4 344 -9 243 l 48 631 l 135 631 l 91 344 q 139 196 70 217 q 189 189 159 189 q 304 248 233 189 q 307 344 298 289 l 352 631 l 439 631 l 393 344 q 441 196 372 217 q 483 189 461 189 q 526 196 506 189 q 565 215 546 204 q 619 261 589 231 l 691 631 l 776 631 l 659 -74 l 578 -74 q 591 27 578 -56 q 615 194 604 109 q 557 150 596 176 q 422 106 489 106 z "},"౼":{"ha":798,"x_min":13,"x_max":719,"o":"m 44 396 q 380 398 44 396 q 563 398 380 398 q 719 396 652 398 l 689 291 l 13 291 l 44 396 z "},"౽":{"ha":985,"x_min":-11,"x_max":907,"o":"m -2 90 q -2 117 -2 90 q 36 179 -2 144 q 144 213 74 213 q 448 239 352 213 q 524 293 507 254 q 518 372 541 331 q 431 444 494 413 q 285 476 367 476 q 156 460 204 476 q 78 429 109 444 q 27 406 46 413 q -2 419 7 400 q 13 458 -11 439 q 80 493 37 478 q 289 528 181 528 q 473 484 396 528 q 576 383 550 441 q 575 270 602 326 q 465 192 548 215 q 305 166 381 169 q 133 163 228 163 q 84 150 102 163 q 64 120 67 137 q 70 89 61 104 q 96 69 80 74 l 907 69 l 907 -2 l 96 -2 q 32 17 67 -2 q -2 90 -2 35 z "},"౾":{"ha":893,"x_min":-6,"x_max":813,"o":"m 367 561 q 228 620 367 620 q 78 596 135 620 q 10 590 26 572 q 22 635 -6 607 q 103 664 59 652 q 231 676 146 676 q 369 640 317 676 q 423 560 422 604 q 397 494 424 517 q 330 463 370 472 q 242 454 289 454 q 154 453 194 454 q 86 445 113 452 q 59 415 59 439 q 87 392 59 396 q 156 386 115 387 q 245 384 196 385 q 334 375 294 383 q 402 347 374 367 q 430 288 430 328 q 404 231 430 248 q 337 207 378 213 q 248 202 296 202 q 159 198 200 202 q 65 128 65 189 q 94 94 65 109 q 169 78 124 78 l 813 74 l 813 -2 l 174 -2 q 37 46 83 -2 q 2 131 2 83 q 29 203 2 178 q 96 239 56 228 q 184 251 137 250 q 272 254 231 252 q 340 262 313 256 q 367 291 367 269 q 340 321 367 313 q 272 331 313 330 q 184 331 231 331 q 96 335 137 330 q 29 359 56 341 q 2 418 2 378 q 29 476 2 457 q 96 498 56 494 q 184 500 137 502 q 272 500 231 498 q 340 515 313 502 q 367 561 367 528 z "},"౿":{"ha":870,"x_min":-22,"x_max":791,"o":"m 506 -55 q 472 -61 506 -55 q 361 -59 437 -67 q 222 -18 285 -52 q 112 63 159 17 q 37 170 65 109 q 41 450 -22 304 q 163 598 83 546 q 344 619 256 659 q 416 539 402 593 q 410 436 430 485 q 344 360 391 387 q 233 361 298 333 q 162 444 176 389 q 174 548 148 498 q 97 438 126 509 q 79 310 69 367 q 118 208 89 254 q 184 128 146 163 q 266 66 222 93 q 369 22 309 39 q 485 7 428 6 q 683 89 607 9 q 717 158 711 119 q 719 217 722 198 q 724 246 715 235 q 748 259 733 257 q 787 231 783 267 q 779 155 791 194 q 728 67 767 115 q 632 -12 689 19 q 506 -55 576 -43 m 237 422 q 252 414 237 422 q 300 409 267 406 q 356 452 333 413 q 368 522 380 491 q 328 567 356 554 q 224 552 269 600 q 201 479 194 519 q 237 422 207 439 z "},"‌":{"ha":178,"x_min":0,"x_max":61,"o":"m 0 -370 l 0 817 l 61 817 l 61 -370 l 0 -370 z "},"‍":{"ha":344,"x_min":0,"x_max":230,"o":"m 0 -370 l 0 817 l 230 817 l 230 761 l 61 761 l 61 -370 l 0 -370 z "},"–":{"ha":554,"x_min":30,"x_max":524,"o":"m 504 283 l 30 283 l 48 415 l 524 415 l 504 283 z "},"—":{"ha":937,"x_min":30,"x_max":844,"o":"m 828 285 l 30 285 l 46 415 l 844 415 l 828 285 z "},"…":{"ha":924,"x_min":30,"x_max":789,"o":"m 138 187 q 157 187 138 187 q 197 161 176 187 q 211 88 219 135 q 176 15 204 41 q 110 -11 148 -11 q 51 15 72 -11 q 35 87 30 41 q 72 160 44 133 q 138 187 100 187 m 424 187 q 444 187 424 187 q 482 161 463 187 q 495 88 502 135 q 461 15 489 41 q 394 -11 433 -11 q 334 15 356 -11 q 319 87 313 41 q 356 160 328 133 q 424 187 385 187 m 706 187 q 726 187 706 187 q 768 160 746 187 q 782 87 789 133 q 746 15 776 41 q 678 -11 717 -11 q 618 15 639 -11 q 603 88 596 41 q 638 161 609 135 q 706 187 667 187 z "},"₹":{"ha":611,"x_min":2,"x_max":526,"o":"m 2 644 l 526 644 l 526 594 l 361 594 q 407 545 385 585 q 428 465 430 506 l 496 465 l 496 417 l 433 417 q 407 350 430 385 q 344 289 385 315 q 133 241 250 224 q 216 188 165 219 q 320 122 267 157 q 526 -6 378 85 l 526 -37 l 420 -37 q 376 -4 409 -28 q 301 52 343 20 q 214 118 259 83 q 131 181 169 152 q 70 230 93 211 l 46 246 l 46 291 q 119 281 72 283 q 215 289 167 278 q 350 417 330 315 l 46 417 l 46 465 l 350 465 q 317 555 350 520 q 244 593 283 589 l 189 594 l 2 594 l 2 644 z "},"℃":{"ha":785,"x_min":37,"x_max":724,"o":"m 724 187 l 724 93 q 481 -9 620 -9 q 244 93 343 -9 q 144 339 144 193 q 244 587 144 485 q 473 689 341 689 q 689 619 606 689 l 689 500 l 685 500 q 672 519 678 509 q 659 539 667 530 q 482 633 587 633 q 311 543 378 633 q 244 339 244 452 q 307 141 244 226 q 483 48 380 48 q 719 187 620 48 l 724 187 m 211 689 q 190 749 211 722 q 139 776 169 776 q 88 749 109 776 q 67 689 67 722 q 88 629 67 656 q 139 602 109 602 q 190 629 169 602 q 211 689 211 656 m 67 761 q 138 791 96 791 q 210 761 180 791 q 241 688 241 731 q 210 615 241 644 q 138 585 180 585 q 67 615 96 585 q 37 688 37 644 q 67 761 37 731 z "},"℉":{"ha":635,"x_min":37,"x_max":585,"o":"m 211 689 q 190 749 211 722 q 139 776 169 776 q 88 749 109 776 q 67 689 67 722 q 88 629 67 656 q 139 602 109 602 q 190 629 169 602 q 211 689 211 656 m 67 761 q 138 791 96 791 q 210 761 180 791 q 241 688 241 731 q 210 615 241 644 q 138 585 180 585 q 67 615 96 585 q 37 688 37 644 q 67 761 37 731 m 585 300 q 450 313 528 313 l 380 313 l 380 135 q 393 0 380 63 l 276 0 q 287 135 287 67 l 287 546 q 276 680 287 615 l 585 680 l 585 611 q 450 624 507 624 l 383 624 q 380 546 380 583 l 380 369 l 450 369 q 585 383 496 369 l 585 300 z "},"™":{"ha":898,"x_min":89,"x_max":807,"o":"m 378 335 q 393 411 389 361 l 413 611 l 413 656 q 411 685 413 669 l 474 685 q 498 615 483 648 l 591 411 l 687 615 q 698 645 693 628 q 713 685 704 663 l 776 685 q 774 663 774 674 l 774 611 l 791 411 q 807 335 800 365 l 728 335 q 731 359 731 346 l 731 383 q 730 413 731 402 l 717 572 l 641 406 q 617 335 624 369 l 556 335 q 531 406 546 380 l 457 572 l 443 413 l 443 356 q 446 335 443 344 l 378 335 m 178 335 q 189 411 189 374 l 189 609 q 187 639 189 630 l 167 639 q 89 631 130 639 l 89 685 l 350 685 l 350 631 q 272 639 309 639 l 252 639 l 252 411 q 259 335 252 367 l 178 335 z "},"⅓":{"ha":719,"x_min":89,"x_max":630,"o":"m 594 78 q 604 0 594 52 l 524 0 q 531 78 531 37 l 531 81 l 372 81 l 359 120 q 383 146 372 133 q 407 174 394 159 l 494 296 q 528 359 517 324 l 604 359 q 594 281 594 307 l 594 130 q 630 137 609 130 l 630 81 l 594 81 l 594 78 m 531 128 l 531 272 l 428 128 l 531 128 m 141 0 q 211 117 180 52 l 411 552 q 454 680 439 615 l 556 680 q 485 563 517 631 l 285 130 q 241 0 259 70 l 141 0 m 152 333 q 161 411 161 367 l 161 617 l 119 576 l 89 609 l 159 674 l 233 689 q 224 619 224 652 l 224 411 q 233 333 224 378 l 152 333 z "},"←":{"ha":780,"x_min":2,"x_max":676,"o":"m 235 341 l 235 194 l 150 270 q 2 394 98 320 l 150 524 q 194 559 172 541 q 235 594 215 578 l 233 450 l 676 450 l 676 341 l 235 341 z "},"↑":{"ha":452,"x_min":0,"x_max":398,"o":"m 398 407 l 252 407 l 252 -33 l 144 -33 l 144 409 l 0 407 q 36 449 19 428 q 79 499 54 470 q 137 568 104 528 q 198 639 170 607 q 324 493 256 565 l 398 407 z "},"→":{"ha":813,"x_min":2,"x_max":674,"o":"m 674 394 q 526 270 578 320 l 443 194 l 443 341 l 2 341 l 2 450 l 443 450 l 443 594 l 526 524 l 674 394 z "},"↓":{"ha":474,"x_min":0,"x_max":398,"o":"m 398 198 l 324 115 q 257 39 291 80 q 198 -33 224 -2 q 137 39 170 -2 q 72 115 104 80 l 0 198 l 144 198 l 144 639 l 252 639 l 252 198 l 398 198 z "},"◌":{"ha":961,"x_min":76,"x_max":887,"o":"m 656 -74 q 619 -56 633 -74 q 604 -18 604 -39 q 619 19 604 4 q 656 35 633 35 q 694 19 678 35 q 711 -18 711 4 q 694 -56 711 -39 q 656 -74 678 -74 m 252 589 q 267 627 252 611 q 305 643 281 643 q 344 627 328 643 q 359 589 359 611 q 344 551 359 567 q 305 535 328 535 q 267 551 281 535 q 252 589 252 567 m 730 109 q 746 147 730 131 q 785 163 763 163 q 823 147 807 163 q 839 109 839 131 q 823 71 839 87 q 785 56 807 56 q 746 71 763 56 q 730 109 730 87 m 178 407 q 167 407 178 407 q 139 424 156 407 q 122 462 122 441 q 139 498 122 483 q 178 513 156 513 q 216 498 200 513 q 231 462 231 483 q 216 424 231 441 q 178 407 200 407 m 305 -74 q 293 -74 305 -74 q 267 -56 281 -74 q 252 -18 252 -39 q 267 19 252 4 q 305 35 281 35 q 344 19 328 35 q 359 -18 359 4 q 344 -56 359 -39 q 305 -74 328 -74 m 604 589 q 619 627 604 611 q 656 643 633 643 q 694 627 678 643 q 711 589 711 611 q 694 551 711 567 q 656 535 678 535 q 619 551 633 535 q 604 589 604 567 m 785 407 q 746 424 763 407 q 730 462 730 441 q 746 498 730 483 q 785 513 763 513 q 823 498 807 513 q 839 462 839 483 q 823 424 839 441 q 785 407 807 407 m 122 109 q 139 147 122 131 q 178 163 156 163 q 216 147 200 163 q 231 109 231 131 q 216 71 231 87 q 178 56 200 56 q 139 71 156 56 q 122 109 122 87 m 780 285 q 795 323 780 307 q 833 339 811 339 q 871 323 856 339 q 887 285 887 307 q 871 247 887 263 q 833 231 856 231 q 795 247 811 231 q 780 285 780 263 m 76 285 q 92 323 76 307 q 129 339 107 339 q 167 323 150 339 q 183 285 183 307 q 167 247 183 263 q 129 231 150 231 q 92 247 107 231 q 76 285 76 263 m 426 -67 q 442 -28 426 -44 q 480 -11 457 -11 q 519 -28 502 -11 q 535 -67 535 -44 q 519 -105 535 -89 q 480 -120 502 -120 q 442 -105 457 -120 q 426 -67 426 -89 m 480 583 q 442 599 457 583 q 426 638 426 615 q 442 677 426 661 q 480 693 457 693 q 519 677 502 693 q 535 638 535 661 q 519 599 535 615 q 480 583 502 583 z "}}}
